# File generated by IfcOpenShell v0.7.0-f7c03db75
mtllib IfcDuctSegment-矩形风管_镀锌钢板_4908279-0aL5o$nTTEseKFbR4KvlHF-0603005453509924.mtl
g product-24545cbf-c5d7-4eda-850f-95b114e6f44f-body
s 1
v 0 0.228297507661512 5.02375918642883e-15
v 1.10000000000001 0.228297507661512 5.02375918642883e-15
v 1.10000000000001 0.353297504661507 0.216506352678149
v 0 0.353297504661507 0.216506352678149
v 0 0.353297504661507 0.216506352678149
v 1.10000000000001 0.353297504661507 0.216506352678149
v 1.10000000000001 0.124999997000126 0.348313975963929
v 0 0.124999997000126 0.348313975963929
v 0 0.124999997000126 0.348313975963929
v 1.10000000000001 0.124999997000126 0.348313975963929
v 1.10000000000001 1.30312427515378e-13 0.131807623285785
v 0 1.30312427515378e-13 0.131807623285785
v 0 1.30312427515378e-13 0.131807623285785
v 1.10000000000001 1.30312427515378e-13 0.131807623285785
v 1.10000000000001 0.228297507661512 5.02375918642883e-15
v 0 0.228297507661512 5.02375918642883e-15
v 0 0.228297507661512 5.02375918642883e-15
v 0 0.353297504661507 0.216506352678149
v 0 0.124999997000126 0.348313975963929
v 0 1.30312427515378e-13 0.131807623285785
v 1.10000000000001 0.228297507661512 5.02375918642883e-15
v 1.10000000000001 0.353297504661507 0.216506352678149
v 1.10000000000001 0.124999997000126 0.348313975963929
v 1.10000000000001 1.30312427515378e-13 0.131807623285785
vn 0 0.866025410712633 -0.499999988000015
vn 0 0.866025410712633 -0.499999988000015
vn 0 0.866025410712633 -0.499999988000015
vn 0 0.866025410712633 -0.499999988000015
vn 0 0.499999988000015 0.866025410712633
vn 0 0.499999988000015 0.866025410712633
vn 0 0.499999988000015 0.866025410712633
vn 0 0.499999988000015 0.866025410712633
vn 0 -0.866025410712633 0.499999988000015
vn 0 -0.866025410712633 0.499999988000015
vn 0 -0.866025410712633 0.499999988000015
vn 0 -0.866025410712633 0.499999988000015
vn -0 -0.499999988000015 -0.866025410712633
vn -0 -0.499999988000015 -0.866025410712633
vn -0 -0.499999988000015 -0.866025410712633
vn -0 -0.499999988000015 -0.866025410712633
vn -1 0 0
vn -1 0 0
vn -1 0 0
vn -1 0 0
vn 1 0 0
vn 1 0 0
vn 1 0 0
vn 1 0 0
usemtl DefaultMaterial
f 2//2 1//1 4//4
f 3//3 2//2 4//4
f 6//6 5//5 8//8
f 7//7 6//6 8//8
f 10//10 9//9 12//12
f 11//11 10//10 12//12
f 14//14 13//13 16//16
f 15//15 14//14 16//16
f 20//20 19//19 18//18
f 17//17 20//20 18//18
f 22//22 23//23 24//24
f 22//22 24//24 21//21
