# File generated by IfcOpenShell v0.7.0-f7c03db75
mtllib IfcDuctSegment-矩形风管_镀锌板板-斜接头底对齐_1025758-0Q8eeRevD9Lu_$dvTuGZxa-0602232656231000.mtl
g product-1a228a1b-a393-4957-8fbf-9f9778423ee4-body
s 1
v 0.179816384578281 1.22124532708767e-15 0
v 0.179816384578281 1.22124532708767e-15 0.320000000000001
v 1.39991789784002 0.828841245303349 0.320000000000001
v 1.39991789784002 0.828841245303349 0
v 1.39991789784002 0.828841245303349 0
v 1.39991789784002 0.828841245303349 0.320000000000001
v 1.22010151326175 1.09354120343935 0.320000000000001
v 1.22010151326175 1.09354120343935 0
v 1.22010151326175 1.09354120343935 0
v 1.22010151326175 1.09354120343935 0.320000000000001
v 1.90958360235527e-14 0.264699958136007 0.320000000000001
v 1.90958360235527e-14 0.264699958136007 0
v 1.90958360235527e-14 0.264699958136007 0
v 1.90958360235527e-14 0.264699958136007 0.320000000000001
v 0.179816384578281 1.22124532708767e-15 0.320000000000001
v 0.179816384578281 1.22124532708767e-15 0
v 0.179816384578281 1.22124532708767e-15 0
v 1.39991789784002 0.828841245303349 0
v 1.22010151326175 1.09354120343935 0
v 1.90958360235527e-14 0.264699958136007 0
v 0.179816384578281 1.22124532708767e-15 0.320000000000001
v 1.39991789784002 0.828841245303349 0.320000000000001
v 1.22010151326175 1.09354120343935 0.320000000000001
v 1.90958360235527e-14 0.264699958136007 0.320000000000001
vn 0.561926201807066 -0.827187369175016 0
vn 0.561926201807066 -0.827187369175016 0
vn 0.561926201807066 -0.827187369175016 0
vn 0.561926201807066 -0.827187369175016 0
vn 0.827187369175016 0.561926201807066 0
vn 0.827187369175016 0.561926201807066 0
vn 0.827187369175016 0.561926201807066 0
vn 0.827187369175016 0.561926201807066 0
vn -0.561926201807066 0.827187369175016 0
vn -0.561926201807066 0.827187369175016 0
vn -0.561926201807066 0.827187369175016 0
vn -0.561926201807066 0.827187369175016 0
vn -0.827187369175016 -0.561926201807066 -0
vn -0.827187369175016 -0.561926201807066 -0
vn -0.827187369175016 -0.561926201807066 -0
vn -0.827187369175016 -0.561926201807066 -0
vn 0 0 -1
vn 0 0 -1
vn 0 0 -1
vn 0 0 -1
vn 0 0 1
vn 0 0 1
vn 0 0 1
vn 0 0 1
usemtl DefaultMaterial
f 2//2 1//1 4//4
f 3//3 2//2 4//4
f 6//6 5//5 8//8
f 7//7 6//6 8//8
f 10//10 9//9 12//12
f 11//11 10//10 12//12
f 14//14 13//13 16//16
f 15//15 14//14 16//16
f 18//18 17//17 19//19
f 17//17 20//20 19//19
f 23//23 21//21 22//22
f 23//23 24//24 21//21
