# File generated by IfcOpenShell v0.7.0-f7c03db75
mtllib IfcDuctSegment-矩形风管_镀锌钢板(矩形管)_4219172-3EIcWHyeD7thgxwHv_e8JU-0602233212414184.mtl
g product-ce4a6811-f283-47de-babb-e91e7ea084de-body
s 1
v 1.04083408558608e-16 0 0
v 1.04083408558608e-16 0 0.250000000000001
v 0.111735787775363 0 0.250000000000001
v 0.111735787775363 0 0
v 0.111735787775363 0 0
v 0.111735787775363 0 0.250000000000001
v 0.111735787775363 0.4 0.250000000000001
v 0.111735787775363 0.4 0
v 0.111735787775363 0.4 0
v 0.111735787775363 0.4 0.250000000000001
v 1.04083408558608e-16 0.4 0.250000000000001
v 1.04083408558608e-16 0.4 0
v 1.04083408558608e-16 0.4 0
v 1.04083408558608e-16 0.4 0.250000000000001
v 1.04083408558608e-16 0 0.250000000000001
v 1.04083408558608e-16 0 0
v 1.04083408558608e-16 0 0
v 0.111735787775363 0 0
v 0.111735787775363 0.4 0
v 1.04083408558608e-16 0.4 0
v 1.04083408558608e-16 0 0.250000000000001
v 0.111735787775363 0 0.250000000000001
v 0.111735787775363 0.4 0.250000000000001
v 1.04083408558608e-16 0.4 0.250000000000001
vn 0 -1 0
vn 0 -1 0
vn 0 -1 0
vn 0 -1 0
vn 1 0 0
vn 1 0 0
vn 1 0 0
vn 1 0 0
vn 0 1 0
vn 0 1 0
vn 0 1 0
vn 0 1 0
vn -1 -0 -0
vn -1 -0 -0
vn -1 -0 -0
vn -1 -0 -0
vn -0 -0 -1
vn -0 -0 -1
vn -0 -0 -1
vn -0 -0 -1
vn 0 0 1
vn 0 0 1
vn 0 0 1
vn 0 0 1
usemtl DefaultMaterial
f 2//2 1//1 4//4
f 3//3 2//2 4//4
f 6//6 5//5 8//8
f 7//7 6//6 8//8
f 10//10 9//9 12//12
f 11//11 10//10 12//12
f 14//14 13//13 16//16
f 15//15 14//14 16//16
f 18//18 17//17 19//19
f 17//17 20//20 19//19
f 23//23 21//21 22//22
f 23//23 24//24 21//21
