# File generated by IfcOpenShell v0.7.0-f7c03db75
mtllib IfcDuctSegment-矩形风管_EAD_331115-0plh4PTAb0PvogpVGf0mWd-0602233642230205.mtl
g product-33beb119-74a9-4067-9caa-cdf429030827-body
s 1
v -4.9960036108132e-16 0 0
v -4.9960036108132e-16 0 0.0219000000000015
v 0.15 0 0.0219000000000015
v 0.15 0 0
v 0.15 0 0
v 0.15 0 0.0219000000000015
v 0.15 0.15 0.0219000000000015
v 0.15 0.15 0
v 0.15 0.15 0
v 0.15 0.15 0.0219000000000015
v -4.9960036108132e-16 0.15 0.0219000000000015
v -4.9960036108132e-16 0.15 0
v -4.9960036108132e-16 0.15 0
v -4.9960036108132e-16 0.15 0.0219000000000015
v -4.9960036108132e-16 0 0.0219000000000015
v -4.9960036108132e-16 0 0
v -4.9960036108132e-16 0 0
v 0.15 0 0
v 0.15 0.15 0
v -4.9960036108132e-16 0.15 0
v -4.9960036108132e-16 0 0.0219000000000015
v 0.15 0 0.0219000000000015
v 0.15 0.15 0.0219000000000015
v -4.9960036108132e-16 0.15 0.0219000000000015
vn 0 -1 0
vn 0 -1 0
vn 0 -1 0
vn 0 -1 0
vn 1 0 0
vn 1 0 0
vn 1 0 0
vn 1 0 0
vn 0 1 0
vn 0 1 0
vn 0 1 0
vn 0 1 0
vn -1 -0 -0
vn -1 -0 -0
vn -1 -0 -0
vn -1 -0 -0
vn -0 -0 -1
vn -0 -0 -1
vn -0 -0 -1
vn -0 -0 -1
vn 0 0 1
vn 0 0 1
vn 0 0 1
vn 0 0 1
usemtl DefaultMaterial
f 2//2 1//1 4//4
f 3//3 2//2 4//4
f 6//6 5//5 8//8
f 7//7 6//6 8//8
f 10//10 9//9 12//12
f 11//11 10//10 12//12
f 14//14 13//13 16//16
f 15//15 14//14 16//16
f 18//18 17//17 19//19
f 17//17 20//20 19//19
f 23//23 21//21 22//22
f 23//23 24//24 21//21
