# File generated by IfcOpenShell v0.7.0-f7c03db75
mtllib IfcDuctSegment-矩形风管_镀锌钢板-T型三通底对齐_1179968-1ExthTayP4iByQqXij64b5-0602232603330571.mtl
g product-4eef7add-93c6-44b0-bf1a-d21b2d184945-body
s 1
v 1.11022302462516e-15 2.09936907630334 0
v 1.11022302462516e-15 2.09936907630334 0.16
v 1.41604232196222 -2.66453525910038e-15 0.16
v 1.41604232196222 -2.66453525910038e-15 0
v 1.41604232196222 -2.66453525910038e-15 0
v 1.41604232196222 -2.66453525910038e-15 0.16
v 2.24507989451726 0.559192903470743 0.16
v 2.24507989451726 0.559192903470743 0
v 2.24507989451726 0.559192903470743 0
v 2.24507989451726 0.559192903470743 0.16
v 0.829037572555045 2.65856197977408 0.16
v 0.829037572555045 2.65856197977408 0
v 0.829037572555045 2.65856197977408 0
v 0.829037572555045 2.65856197977408 0.16
v 1.11022302462516e-15 2.09936907630334 0.16
v 1.11022302462516e-15 2.09936907630334 0
v 1.11022302462516e-15 2.09936907630334 0
v 1.41604232196222 -2.66453525910038e-15 0
v 2.24507989451726 0.559192903470743 0
v 0.829037572555045 2.65856197977408 0
v 1.11022302462516e-15 2.09936907630334 0.16
v 1.41604232196222 -2.66453525910038e-15 0.16
v 2.24507989451726 0.559192903470743 0.16
v 0.829037572555045 2.65856197977408 0.16
vn -0.829037572555043 -0.559192903470745 -0
vn -0.829037572555043 -0.559192903470745 -0
vn -0.829037572555043 -0.559192903470745 -0
vn -0.829037572555043 -0.559192903470745 -0
vn 0.559192903470745 -0.829037572555043 0
vn 0.559192903470745 -0.829037572555043 0
vn 0.559192903470745 -0.829037572555043 0
vn 0.559192903470745 -0.829037572555043 0
vn 0.829037572555043 0.559192903470745 0
vn 0.829037572555043 0.559192903470745 0
vn 0.829037572555043 0.559192903470745 0
vn 0.829037572555043 0.559192903470745 0
vn -0.559192903470745 0.829037572555043 0
vn -0.559192903470745 0.829037572555043 0
vn -0.559192903470745 0.829037572555043 0
vn -0.559192903470745 0.829037572555043 0
vn 0 0 -1
vn 0 0 -1
vn 0 0 -1
vn 0 0 -1
vn 0 0 1
vn 0 0 1
vn 0 0 1
vn 0 0 1
usemtl DefaultMaterial
f 2//2 1//1 4//4
f 3//3 2//2 4//4
f 6//6 5//5 8//8
f 7//7 6//6 8//8
f 10//10 9//9 12//12
f 11//11 10//10 12//12
f 14//14 13//13 16//16
f 15//15 14//14 16//16
f 18//18 17//17 19//19
f 17//17 20//20 19//19
f 23//23 21//21 22//22
f 23//23 24//24 21//21
