# File generated by IfcOpenShell v0.7.0-f7c03db75
mtllib IfcDuctSegment-矩形风管_镀锌钢板_681441-0$flwy4Nv2uuS3g3Y3daVc-0602230033833044.mtl
g product-3fa6febc-117e-42e3-8703-a838839e47e6-body
s 1
v 1.01914267016905 0.450002095360323 0
v 1.01914267016905 0.450002095360323 0.6
v 0.779421653645405 0.865208497816774 0.6
v 0.779421653645405 0.865208497816774 0
v 0.779421653645405 0.865208497816774 0
v 0.779421653645405 0.865208497816774 0.6
v 1.11022302462516e-16 0.415206402456465 0.6
v 1.11022302462516e-16 0.415206402456465 0
v 1.11022302462516e-16 0.415206402456465 0
v 1.11022302462516e-16 0.415206402456465 0.6
v 0.239721016523647 1.4432899320127e-14 0.6
v 0.239721016523647 1.4432899320127e-14 0
v 0.239721016523647 1.4432899320127e-14 0
v 0.239721016523647 1.4432899320127e-14 0.6
v 1.01914267016905 0.450002095360323 0.6
v 1.01914267016905 0.450002095360323 0
v 1.01914267016905 0.450002095360323 0
v 0.779421653645405 0.865208497816774 0
v 1.11022302462516e-16 0.415206402456465 0
v 0.239721016523647 1.4432899320127e-14 0
v 1.01914267016905 0.450002095360323 0.6
v 0.779421653645405 0.865208497816774 0.6
v 1.11022302462516e-16 0.415206402456465 0.6
v 0.239721016523647 1.4432899320127e-14 0.6
vn 0.866024059606002 0.500002328178119 0
vn 0.866024059606002 0.500002328178119 0
vn 0.866024059606002 0.500002328178119 0
vn 0.866024059606002 0.500002328178119 0
vn -0.500002328178119 0.866024059606002 0
vn -0.500002328178119 0.866024059606002 0
vn -0.500002328178119 0.866024059606002 0
vn -0.500002328178119 0.866024059606002 0
vn -0.866024059606002 -0.500002328178119 -0
vn -0.866024059606002 -0.500002328178119 -0
vn -0.866024059606002 -0.500002328178119 -0
vn -0.866024059606002 -0.500002328178119 -0
vn 0.500002328178119 -0.866024059606002 0
vn 0.500002328178119 -0.866024059606002 0
vn 0.500002328178119 -0.866024059606002 0
vn 0.500002328178119 -0.866024059606002 0
vn -0 -0 -1
vn -0 -0 -1
vn -0 -0 -1
vn -0 -0 -1
vn 0 0 1
vn 0 0 1
vn 0 0 1
vn 0 0 1
usemtl DefaultMaterial
f 2//2 1//1 4//4
f 3//3 2//2 4//4
f 6//6 5//5 8//8
f 7//7 6//6 8//8
f 10//10 9//9 12//12
f 11//11 10//10 12//12
f 14//14 13//13 16//16
f 15//15 14//14 16//16
f 18//18 17//17 19//19
f 17//17 20//20 19//19
f 23//23 21//21 22//22
f 23//23 24//24 21//21
