# File generated by IfcOpenShell v0.7.0-f7c03db75
mtllib IfcDuctSegment-矩形风管_镀锌钢板_5598538-0KM4g53_XEWQFXBvfSckAO-0603005810349659.mtl
g product-14584a85-0fe8-4e81-a3e1-2f9a5c9ae298-body
s 1
v 0.200000000000004 9.49240686054509e-15 0
v 0.200000000000004 9.49240686054509e-15 0.0501987298107694
v 0.200000000000004 0.99999999999999 0.0501987298107694
v 0.200000000000004 0.99999999999999 0
v 0.200000000000004 0.99999999999999 0
v 0.200000000000004 0.99999999999999 0.0501987298107694
v -3.49720252756924e-15 0.99999999999999 0.0501987298107694
v -3.49720252756924e-15 0.99999999999999 0
v -3.49720252756924e-15 0.99999999999999 0
v -3.49720252756924e-15 0.99999999999999 0.0501987298107694
v -3.49720252756924e-15 9.49240686054509e-15 0.0501987298107694
v -3.49720252756924e-15 9.49240686054509e-15 0
v -3.49720252756924e-15 9.49240686054509e-15 0
v -3.49720252756924e-15 9.49240686054509e-15 0.0501987298107694
v 0.200000000000004 9.49240686054509e-15 0.0501987298107694
v 0.200000000000004 9.49240686054509e-15 0
v 0.200000000000004 9.49240686054509e-15 0
v 0.200000000000004 0.99999999999999 0
v -3.49720252756924e-15 0.99999999999999 0
v -3.49720252756924e-15 9.49240686054509e-15 0
v 0.200000000000004 9.49240686054509e-15 0.0501987298107694
v 0.200000000000004 0.99999999999999 0.0501987298107694
v -3.49720252756924e-15 0.99999999999999 0.0501987298107694
v -3.49720252756924e-15 9.49240686054509e-15 0.0501987298107694
vn 1 0 0
vn 1 0 0
vn 1 0 0
vn 1 0 0
vn 0 1 0
vn 0 1 0
vn 0 1 0
vn 0 1 0
vn -1 -0 -0
vn -1 -0 -0
vn -1 -0 -0
vn -1 -0 -0
vn 0 -1 0
vn 0 -1 0
vn 0 -1 0
vn 0 -1 0
vn 0 0 -1
vn 0 0 -1
vn 0 0 -1
vn 0 0 -1
vn 0 0 1
vn 0 0 1
vn 0 0 1
vn 0 0 1
usemtl DefaultMaterial
f 2//2 1//1 4//4
f 3//3 2//2 4//4
f 6//6 5//5 8//8
f 7//7 6//6 8//8
f 10//10 9//9 12//12
f 11//11 10//10 12//12
f 14//14 13//13 16//16
f 15//15 14//14 16//16
f 18//18 17//17 19//19
f 17//17 20//20 19//19
f 23//23 21//21 22//22
f 23//23 24//24 21//21
