# File generated by IfcOpenShell v0.7.0-f7c03db75
mtllib IfcDuctSegment-矩形风管_HW标准风管_4044747-26FFgbLljA2hsfly_Z_sw6-0602224914493667.mtl
g product-863cfaa5-56fb-4a0a-bda9-bfcfa3fb6e86-body
s 1
v 0.14682482952219 0.193448462932669 0
v 0.14682482952219 0.193448462932669 0.119999999999999
v -5.14865927669916e-15 0.10179456068136 0.119999999999999
v -5.14865927669916e-15 0.10179456068136 0
v -5.14865927669916e-15 0.10179456068136 0
v -5.14865927669916e-15 0.10179456068136 0.119999999999999
v 0.0635442162253159 -2.77555756156289e-17 0.119999999999999
v 0.0635442162253159 -2.77555756156289e-17 0
v 0.0635442162253159 -2.77555756156289e-17 0
v 0.0635442162253159 -2.77555756156289e-17 0.119999999999999
v 0.210369045747511 0.0916539022513086 0.119999999999999
v 0.210369045747511 0.0916539022513086 0
v 0.210369045747511 0.0916539022513086 0
v 0.210369045747511 0.0916539022513086 0.119999999999999
v 0.14682482952219 0.193448462932669 0.119999999999999
v 0.14682482952219 0.193448462932669 0
v 0.14682482952219 0.193448462932669 0
v -5.14865927669916e-15 0.10179456068136 0
v 0.0635442162253159 -2.77555756156289e-17 0
v 0.210369045747511 0.0916539022513086 0
v 0.14682482952219 0.193448462932669 0.119999999999999
v -5.14865927669916e-15 0.10179456068136 0.119999999999999
v 0.0635442162253159 -2.77555756156289e-17 0.119999999999999
v 0.210369045747511 0.0916539022513086 0.119999999999999
vn -0.529535135210982 0.848288005677958 0
vn -0.529535135210982 0.848288005677958 0
vn -0.529535135210982 0.848288005677958 0
vn -0.529535135210982 0.848288005677958 0
vn -0.848288005677958 -0.529535135210982 -0
vn -0.848288005677958 -0.529535135210982 -0
vn -0.848288005677958 -0.529535135210982 -0
vn -0.848288005677958 -0.529535135210982 -0
vn 0.529535135210982 -0.848288005677958 0
vn 0.529535135210982 -0.848288005677958 0
vn 0.529535135210982 -0.848288005677958 0
vn 0.529535135210982 -0.848288005677958 0
vn 0.848288005677958 0.529535135210982 0
vn 0.848288005677958 0.529535135210982 0
vn 0.848288005677958 0.529535135210982 0
vn 0.848288005677958 0.529535135210982 0
vn -0 -0 -1
vn -0 -0 -1
vn -0 -0 -1
vn -0 -0 -1
vn 0 0 1
vn 0 0 1
vn 0 0 1
vn 0 0 1
usemtl DefaultMaterial
f 2//2 1//1 4//4
f 3//3 2//2 4//4
f 6//6 5//5 8//8
f 7//7 6//6 8//8
f 10//10 9//9 12//12
f 11//11 10//10 12//12
f 14//14 13//13 16//16
f 15//15 14//14 16//16
f 18//18 17//17 19//19
f 17//17 20//20 19//19
f 23//23 21//21 22//22
f 23//23 24//24 21//21
