# File generated by IfcOpenShell v0.7.0-f7c03db75
mtllib IfcDuctSegment-矩形风管_半径弯头_T 形三通_716564-0kcqc0wif6bOk5FD34TE4H-0602232101832603.mtl
g product-2e9b4980-eaca-4695-8b85-3cd0c474e111-body
s 1
v 1.1 0 0
v 1.1 0 5.042
v 1.1 0.7 5.042
v 1.1 0.7 0
v 1.1 0.7 0
v 1.1 0.7 5.042
v 4.9960036108132e-15 0.7 5.042
v 4.9960036108132e-15 0.7 0
v 4.9960036108132e-15 0.7 0
v 4.9960036108132e-15 0.7 5.042
v 4.9960036108132e-15 0 5.042
v 4.9960036108132e-15 0 0
v 4.9960036108132e-15 0 0
v 4.9960036108132e-15 0 5.042
v 1.1 0 5.042
v 1.1 0 0
v 1.1 0 0
v 1.1 0.7 0
v 4.9960036108132e-15 0.7 0
v 4.9960036108132e-15 0 0
v 1.1 0 5.042
v 1.1 0.7 5.042
v 4.9960036108132e-15 0.7 5.042
v 4.9960036108132e-15 0 5.042
vn 1 0 0
vn 1 0 0
vn 1 0 0
vn 1 0 0
vn 0 1 0
vn 0 1 0
vn 0 1 0
vn 0 1 0
vn -1 -0 -0
vn -1 -0 -0
vn -1 -0 -0
vn -1 -0 -0
vn 0 -1 0
vn 0 -1 0
vn 0 -1 0
vn 0 -1 0
vn 0 0 -1
vn 0 0 -1
vn 0 0 -1
vn 0 0 -1
vn 0 0 1
vn 0 0 1
vn 0 0 1
vn 0 0 1
usemtl DefaultMaterial
f 2//2 1//1 4//4
f 3//3 2//2 4//4
f 6//6 5//5 8//8
f 7//7 6//6 8//8
f 10//10 9//9 12//12
f 11//11 10//10 12//12
f 14//14 13//13 16//16
f 15//15 14//14 16//16
f 18//18 17//17 19//19
f 17//17 20//20 19//19
f 23//23 21//21 22//22
f 23//23 24//24 21//21
