# File generated by IfcOpenShell v0.7.0-f7c03db75
mtllib IfcDuctSegment-矩形风管_默认_2296470-2f$SBMAKb1Zg0g2Fod20yb-0602232417233466.mtl
g product-a9fdc2d6-2949-418e-a02a-08fca7080f25-body
s 1
v 2.0122792321331e-16 0 0
v 2.0122792321331e-16 0 1.25
v 0.113797301815157 0 1.25
v 0.113797301815157 0 0
v 0.113797301815157 0 0
v 0.113797301815157 0 1.25
v 0.113797301815157 1.6 1.25
v 0.113797301815157 1.6 0
v 0.113797301815157 1.6 0
v 0.113797301815157 1.6 1.25
v 2.0122792321331e-16 1.6 1.25
v 2.0122792321331e-16 1.6 0
v 2.0122792321331e-16 1.6 0
v 2.0122792321331e-16 1.6 1.25
v 2.0122792321331e-16 0 1.25
v 2.0122792321331e-16 0 0
v 2.0122792321331e-16 0 0
v 0.113797301815157 0 0
v 0.113797301815157 1.6 0
v 2.0122792321331e-16 1.6 0
v 2.0122792321331e-16 0 1.25
v 0.113797301815157 0 1.25
v 0.113797301815157 1.6 1.25
v 2.0122792321331e-16 1.6 1.25
vn 0 -1 0
vn 0 -1 0
vn 0 -1 0
vn 0 -1 0
vn 1 0 0
vn 1 0 0
vn 1 0 0
vn 1 0 0
vn 0 1 0
vn 0 1 0
vn 0 1 0
vn 0 1 0
vn -1 -0 -0
vn -1 -0 -0
vn -1 -0 -0
vn -1 -0 -0
vn -0 -0 -1
vn -0 -0 -1
vn -0 -0 -1
vn -0 -0 -1
vn 0 0 1
vn 0 0 1
vn 0 0 1
vn 0 0 1
usemtl DefaultMaterial
f 2//2 1//1 4//4
f 3//3 2//2 4//4
f 6//6 5//5 8//8
f 7//7 6//6 8//8
f 10//10 9//9 12//12
f 11//11 10//10 12//12
f 14//14 13//13 16//16
f 15//15 14//14 16//16
f 18//18 17//17 19//19
f 17//17 20//20 19//19
f 23//23 21//21 22//22
f 23//23 24//24 21//21
