# File generated by IfcOpenShell v0.7.0-f7c03db75
mtllib IfcDuctSegment-矩形风管_镀锌钢板-法兰_1004677-2X09RKKujAWPU2ojYnUXfT-0602233856246803.mtl
g product-a10096d4-538b-4a81-9782-cad8b17a1a5d-body
s 1
v 0 4.9960036108132e-16 0
v 0 4.9960036108132e-16 0.199999999999998
v 4.32962265444094 4.9960036108132e-16 0.199999999999998
v 4.32962265444094 4.9960036108132e-16 0
v 4.32962265444094 4.9960036108132e-16 0
v 4.32962265444094 4.9960036108132e-16 0.199999999999998
v 4.32962265444094 0.25 0.199999999999998
v 4.32962265444094 0.25 0
v 4.32962265444094 0.25 0
v 4.32962265444094 0.25 0.199999999999998
v 0 0.25 0.199999999999998
v 0 0.25 0
v 0 0.25 0
v 0 0.25 0.199999999999998
v 0 4.9960036108132e-16 0.199999999999998
v 0 4.9960036108132e-16 0
v 0 4.9960036108132e-16 0
v 4.32962265444094 4.9960036108132e-16 0
v 4.32962265444094 0.25 0
v 0 0.25 0
v 0 4.9960036108132e-16 0.199999999999998
v 4.32962265444094 4.9960036108132e-16 0.199999999999998
v 4.32962265444094 0.25 0.199999999999998
v 0 0.25 0.199999999999998
vn 0 -1 0
vn 0 -1 0
vn 0 -1 0
vn 0 -1 0
vn 1 0 0
vn 1 0 0
vn 1 0 0
vn 1 0 0
vn 0 1 0
vn 0 1 0
vn 0 1 0
vn 0 1 0
vn -1 -0 -0
vn -1 -0 -0
vn -1 -0 -0
vn -1 -0 -0
vn -0 -0 -1
vn -0 -0 -1
vn -0 -0 -1
vn -0 -0 -1
vn 0 0 1
vn 0 0 1
vn 0 0 1
vn 0 0 1
usemtl DefaultMaterial
f 2//2 1//1 4//4
f 3//3 2//2 4//4
f 6//6 5//5 8//8
f 7//7 6//6 8//8
f 10//10 9//9 12//12
f 11//11 10//10 12//12
f 14//14 13//13 16//16
f 15//15 14//14 16//16
f 18//18 17//17 19//19
f 17//17 20//20 19//19
f 23//23 21//21 22//22
f 23//23 24//24 21//21
