# File generated by IfcOpenShell v0.7.0-f7c03db75
mtllib IfcDuctSegment-矩形风管_镀锌板板-斜接头底对齐_1360526-1B_AeEbr5BS9X4jU15ynrc-0602232731057282.mtl
g product-4bf8aa0e-9751-4b70-9844-b5e045f31d66-body
s 1
v 5.99520433297585e-15 2.67872288165088 0
v 5.99520433297585e-15 2.67872288165088 0.320000000000001
v 1.81971412063132 1.35447209004269e-14 0.320000000000001
v 1.81971412063132 1.35447209004269e-14 0
v 1.81971412063132 1.35447209004269e-14 0
v 1.81971412063132 1.35447209004269e-14 0.320000000000001
v 2.08441408090423 0.179816381432616 0.320000000000001
v 2.08441408090423 0.179816381432616 0
v 2.08441408090423 0.179816381432616 0
v 2.08441408090423 0.179816381432616 0.320000000000001
v 0.264699960272921 2.85853926308349 0.320000000000001
v 0.264699960272921 2.85853926308349 0
v 0.264699960272921 2.85853926308349 0
v 0.264699960272921 2.85853926308349 0.320000000000001
v 5.99520433297585e-15 2.67872288165088 0.320000000000001
v 5.99520433297585e-15 2.67872288165088 0
v 5.99520433297585e-15 2.67872288165088 0
v 1.81971412063132 1.35447209004269e-14 0
v 2.08441408090423 0.179816381432616 0
v 0.264699960272921 2.85853926308349 0
v 5.99520433297585e-15 2.67872288165088 0.320000000000001
v 1.81971412063132 1.35447209004269e-14 0.320000000000001
v 2.08441408090423 0.179816381432616 0.320000000000001
v 0.264699960272921 2.85853926308349 0.320000000000001
vn -0.827187375852869 -0.561926191976887 -0
vn -0.827187375852869 -0.561926191976887 -0
vn -0.827187375852869 -0.561926191976887 -0
vn -0.827187375852869 -0.561926191976887 -0
vn 0.561926191976887 -0.827187375852869 0
vn 0.561926191976887 -0.827187375852869 0
vn 0.561926191976887 -0.827187375852869 0
vn 0.561926191976887 -0.827187375852869 0
vn 0.827187375852869 0.561926191976887 0
vn 0.827187375852869 0.561926191976887 0
vn 0.827187375852869 0.561926191976887 0
vn 0.827187375852869 0.561926191976887 0
vn -0.561926191976887 0.827187375852869 0
vn -0.561926191976887 0.827187375852869 0
vn -0.561926191976887 0.827187375852869 0
vn -0.561926191976887 0.827187375852869 0
vn 0 0 -1
vn 0 0 -1
vn 0 0 -1
vn 0 0 -1
vn 0 0 1
vn 0 0 1
vn 0 0 1
vn 0 0 1
usemtl DefaultMaterial
f 2//2 1//1 4//4
f 3//3 2//2 4//4
f 6//6 5//5 8//8
f 7//7 6//6 8//8
f 10//10 9//9 12//12
f 11//11 10//10 12//12
f 14//14 13//13 16//16
f 15//15 14//14 16//16
f 18//18 17//17 19//19
f 17//17 20//20 19//19
f 23//23 21//21 22//22
f 23//23 24//24 21//21
