# File generated by IfcOpenShell v0.7.0-f7c03db75
mtllib IfcDuctSegment-圆形风管_圆形风管_526663-15pf7A4W1BcfXDIg3R6w9j-0602231132994614.mtl
g product-45ce91ca-1200-4b9a-984d-4aa0db1ba26d-body
s 1
v 0.00159527223554027 0.0364363827568921 0.0255952722359159
v 0.117404132597129 0.14618078426707 0.0255952722359159
v 0.117883834043811 0.145674574591774 0.0313388481788173
v 0.11929505987942 0.144185364632216 0.0367486283649663
v 0.121555794787988 0.141799701858188 0.041510216033695
v 0.124534653074064 0.138656232318584 0.0453468850173637
v 0.128058514321773 0.134937643037001 0.0480356620603659
v 0.131922584524112 0.130860044905961 0.0494202852142692
v 0.135902297966244 0.126660413107374 0.0494202852142692
v 0.139766368168583 0.122582814976334 0.0480356620603659
v 0.143290229416292 0.11886422569475 0.0453468850173637
v 0.146269087702369 0.115720756155147 0.041510216033695
v 0.148529822610936 0.113335093381119 0.0367486283649664
v 0.149941048446545 0.111845883421561 0.0313388481788173
v 0.150420749893227 0.111339673746264 0.0255952722359159
v 0.149941048446545 0.111845883421561 0.0198516962930145
v 0.148529822610936 0.113335093381119 0.0144419161068655
v 0.146269087702369 0.115720756155147 0.00968032843813684
v 0.143290229416292 0.11886422569475 0.00584365945446817
v 0.139766368168583 0.122582814976334 0.00315488241146596
v 0.135902297966244 0.126660413107374 0.00177025925756261
v 0.131922584524112 0.130860044905961 0.0017702592575626
v 0.128058514321773 0.134937643037001 0.00315488241146592
v 0.124534653074064 0.138656232318584 0.00584365945446811
v 0.121555794787988 0.141799701858187 0.00968032843813676
v 0.11929505987942 0.144185364632216 0.0144419161068654
v 0.117883834043811 0.145674574591774 0.0198516962930144
v 0.117404132597129 0.14618078426707 0.0255952722359159
v 0.00159527223554027 0.0364363827568921 0.0255952722359159
v 0.00207497368222236 0.0359301730815957 0.0313388481788173
v 0.00348619951783128 0.0344409631220376 0.0367486283649663
v 0.00574693442639864 0.0320553003480093 0.041510216033695
v 0.00872579271247553 0.028911830808406 0.0453468850173637
v 0.0122496539601845 0.0251932415268225 0.0480356620603659
v 0.0161137241625231 0.0211156433957825 0.0494202852142692
v 0.0200934376046553 0.0169160115971957 0.0494202852142692
v 0.0239575078069939 0.0128384134661557 0.0480356620603659
v 0.0274813690547029 0.00911982418457219 0.0453468850173637
v 0.0304602273407798 0.00597635464496888 0.041510216033695
v 0.0327209622493471 0.00359069187094058 0.0367486283649664
v 0.034132188084956 0.00210148191138249 0.0313388481788173
v 0.0346118895316381 0.00159527223608615 0.0255952722359159
v 0.034132188084956 0.00210148191138248 0.0198516962930145
v 0.0327209622493471 0.00359069187094057 0.0144419161068655
v 0.0304602273407798 0.00597635464496885 0.00968032843813684
v 0.0274813690547029 0.00911982418457216 0.00584365945446817
v 0.0239575078069939 0.0128384134661556 0.00315488241146596
v 0.0200934376046553 0.0169160115971957 0.00177025925756261
v 0.0161137241625232 0.0211156433957824 0.0017702592575626
v 0.0122496539601845 0.0251932415268225 0.00315488241146592
v 0.00872579271247558 0.028911830808406 0.00584365945446811
v 0.00574693442639867 0.0320553003480093 0.00968032843813676
v 0.00348619951783131 0.0344409631220376 0.0144419161068654
v 0.00207497368222238 0.0359301730815957 0.0198516962930144
v 0.00159527223554027 0.0364363827568921 0.0255952722359159
v 0.00207497368222236 0.0359301730815957 0.0313388481788173
v 0.00348619951783128 0.0344409631220376 0.0367486283649663
v 0.00574693442639864 0.0320553003480093 0.041510216033695
v 0.00872579271247553 0.028911830808406 0.0453468850173637
v 0.0122496539601845 0.0251932415268225 0.0480356620603659
v 0.0161137241625231 0.0211156433957825 0.0494202852142692
v 0.0200934376046553 0.0169160115971957 0.0494202852142692
v 0.0239575078069939 0.0128384134661557 0.0480356620603659
v 0.0274813690547029 0.00911982418457219 0.0453468850173637
v 0.0304602273407798 0.00597635464496888 0.041510216033695
v 0.0327209622493471 0.00359069187094058 0.0367486283649664
v 0.034132188084956 0.00210148191138249 0.0313388481788173
v 0.0346118895316381 0.00159527223608615 0.0255952722359159
v 0.034132188084956 0.00210148191138248 0.0198516962930145
v 0.0327209622493471 0.00359069187094057 0.0144419161068655
v 0.0304602273407798 0.00597635464496885 0.00968032843813684
v 0.0274813690547029 0.00911982418457216 0.00584365945446817
v 0.0239575078069939 0.0128384134661556 0.00315488241146596
v 0.0200934376046553 0.0169160115971957 0.00177025925756261
v 0.0161137241625232 0.0211156433957824 0.0017702592575626
v 0.0122496539601845 0.0251932415268225 0.00315488241146592
v 0.00872579271247558 0.028911830808406 0.00584365945446811
v 0.00574693442639867 0.0320553003480093 0.00968032843813676
v 0.00348619951783131 0.0344409631220376 0.0144419161068654
v 0.00207497368222238 0.0359301730815957 0.0198516962930144
v 0.117404132597129 0.14618078426707 0.0255952722359159
v 0.117883834043811 0.145674574591774 0.0313388481788173
v 0.11929505987942 0.144185364632216 0.0367486283649663
v 0.121555794787988 0.141799701858188 0.041510216033695
v 0.124534653074064 0.138656232318584 0.0453468850173637
v 0.128058514321773 0.134937643037001 0.0480356620603659
v 0.131922584524112 0.130860044905961 0.0494202852142692
v 0.135902297966244 0.126660413107374 0.0494202852142692
v 0.139766368168583 0.122582814976334 0.0480356620603659
v 0.143290229416292 0.11886422569475 0.0453468850173637
v 0.146269087702369 0.115720756155147 0.041510216033695
v 0.148529822610936 0.113335093381119 0.0367486283649664
v 0.149941048446545 0.111845883421561 0.0313388481788173
v 0.150420749893227 0.111339673746264 0.0255952722359159
v 0.149941048446545 0.111845883421561 0.0198516962930145
v 0.148529822610936 0.113335093381119 0.0144419161068655
v 0.146269087702369 0.115720756155147 0.00968032843813684
v 0.143290229416292 0.11886422569475 0.00584365945446817
v 0.139766368168583 0.122582814976334 0.00315488241146596
v 0.135902297966244 0.126660413107374 0.00177025925756261
v 0.131922584524112 0.130860044905961 0.0017702592575626
v 0.128058514321773 0.134937643037001 0.00315488241146592
v 0.124534653074064 0.138656232318584 0.00584365945446811
v 0.121555794787988 0.141799701858187 0.00968032843813676
v 0.11929505987942 0.144185364632216 0.0144419161068654
v 0.117883834043811 0.145674574591774 0.0198516962930144
vn -0.687846193668705 0.725856469183456 0
vn -0.687846193668705 0.725856469183456 0
vn -0.667858633390285 0.704764399379442 0.239315664287558
vn -0.60905755690658 0.642713984397855 0.464723172043768
vn -0.514860269049607 0.543311368813343 0.663122658240795
vn -0.390741173796403 0.412333471329871 0.822983865893656
vn -0.243913621808529 0.257392251263893 0.935016242685415
vn -0.0829106967110859 0.0874923291372241 0.992708874098054
vn 0.0829106967110855 -0.0874923291372237 0.992708874098054
vn 0.243913621808529 -0.257392251263893 0.935016242685415
vn 0.390741173796403 -0.412333471329871 0.822983865893656
vn 0.514860269049607 -0.543311368813343 0.663122658240795
vn 0.60905755690658 -0.642713984397855 0.464723172043769
vn 0.667858633390285 -0.704764399379442 0.239315664287559
vn 0.687846193668705 -0.725856469183456 1.01064309961486e-15
vn 0.667858633390285 -0.704764399379442 -0.239315664287557
vn 0.60905755690658 -0.642713984397855 -0.464723172043767
vn 0.514860269049608 -0.543311368813344 -0.663122658240794
vn 0.390741173796404 -0.412333471329872 -0.822983865893655
vn 0.243913621808531 -0.257392251263895 -0.935016242685414
vn 0.0829106967110873 -0.0874923291372257 -0.992708874098054
vn -0.082910696711084 0.0874923291372222 -0.992708874098054
vn -0.243913621808528 0.257392251263891 -0.935016242685416
vn -0.390741173796401 0.412333471329869 -0.822983865893658
vn -0.514860269049605 0.543311368813341 -0.663122658240798
vn -0.609057556906579 0.642713984397854 -0.464723172043772
vn -0.667858633390284 0.704764399379442 -0.239315664287561
vn -0.687846193668705 0.725856469183456 -1.1331077795296e-15
vn -0.687846193668705 0.725856469183456 -1.1331077795296e-15
vn -0.667858633390285 0.704764399379442 0.239315664287558
vn -0.60905755690658 0.642713984397855 0.464723172043768
vn -0.514860269049607 0.543311368813343 0.663122658240795
vn -0.390741173796403 0.412333471329871 0.822983865893656
vn -0.243913621808529 0.257392251263893 0.935016242685415
vn -0.0829106967110859 0.0874923291372241 0.992708874098054
vn 0.0829106967110855 -0.0874923291372237 0.992708874098054
vn 0.243913621808529 -0.257392251263893 0.935016242685415
vn 0.390741173796403 -0.412333471329871 0.822983865893656
vn 0.514860269049607 -0.543311368813343 0.663122658240795
vn 0.60905755690658 -0.642713984397855 0.464723172043769
vn 0.667858633390285 -0.704764399379442 0.239315664287559
vn 0.687846193668705 -0.725856469183456 1.01064309961486e-15
vn 0.667858633390285 -0.704764399379442 -0.239315664287557
vn 0.60905755690658 -0.642713984397855 -0.464723172043767
vn 0.514860269049608 -0.543311368813344 -0.663122658240794
vn 0.390741173796404 -0.412333471329872 -0.822983865893655
vn 0.243913621808531 -0.257392251263895 -0.935016242685414
vn 0.0829106967110873 -0.0874923291372257 -0.992708874098054
vn -0.082910696711084 0.0874923291372222 -0.992708874098054
vn -0.243913621808528 0.257392251263891 -0.935016242685416
vn -0.390741173796401 0.412333471329869 -0.822983865893658
vn -0.514860269049605 0.543311368813341 -0.663122658240798
vn -0.609057556906579 0.642713984397854 -0.464723172043772
vn -0.667858633390284 0.704764399379442 -0.239315664287561
vn -0.725856469183456 -0.687846193668705 0
vn -0.725856469183456 -0.687846193668705 0
vn -0.725856469183456 -0.687846193668705 0
vn -0.725856469183456 -0.687846193668705 0
vn -0.725856469183456 -0.687846193668705 0
vn -0.725856469183456 -0.687846193668705 0
vn -0.725856469183456 -0.687846193668705 0
vn -0.725856469183456 -0.687846193668705 0
vn -0.725856469183456 -0.687846193668705 0
vn -0.725856469183456 -0.687846193668705 0
vn -0.725856469183456 -0.687846193668705 0
vn -0.725856469183456 -0.687846193668705 0
vn -0.725856469183456 -0.687846193668705 0
vn -0.725856469183456 -0.687846193668705 0
vn -0.725856469183456 -0.687846193668705 0
vn -0.725856469183456 -0.687846193668705 0
vn -0.725856469183456 -0.687846193668705 0
vn -0.725856469183456 -0.687846193668705 0
vn -0.725856469183456 -0.687846193668705 0
vn -0.725856469183456 -0.687846193668705 0
vn -0.725856469183456 -0.687846193668705 0
vn -0.725856469183456 -0.687846193668705 0
vn -0.725856469183456 -0.687846193668705 0
vn -0.725856469183456 -0.687846193668705 0
vn -0.725856469183456 -0.687846193668705 0
vn -0.725856469183456 -0.687846193668705 0
vn 0.725856469183456 0.687846193668705 0
vn 0.725856469183456 0.687846193668705 0
vn 0.725856469183456 0.687846193668705 0
vn 0.725856469183456 0.687846193668705 0
vn 0.725856469183456 0.687846193668705 0
vn 0.725856469183456 0.687846193668705 0
vn 0.725856469183456 0.687846193668705 0
vn 0.725856469183456 0.687846193668705 0
vn 0.725856469183456 0.687846193668705 0
vn 0.725856469183456 0.687846193668705 0
vn 0.725856469183456 0.687846193668705 0
vn 0.725856469183456 0.687846193668705 0
vn 0.725856469183456 0.687846193668705 0
vn 0.725856469183456 0.687846193668705 0
vn 0.725856469183456 0.687846193668705 0
vn 0.725856469183456 0.687846193668705 0
vn 0.725856469183456 0.687846193668705 0
vn 0.725856469183456 0.687846193668705 0
vn 0.725856469183456 0.687846193668705 0
vn 0.725856469183456 0.687846193668705 0
vn 0.725856469183456 0.687846193668705 0
vn 0.725856469183456 0.687846193668705 0
vn 0.725856469183456 0.687846193668705 0
vn 0.725856469183456 0.687846193668705 0
vn 0.725856469183456 0.687846193668705 0
vn 0.725856469183456 0.687846193668705 0
usemtl DefaultMaterial
f 2//2 1//1 30//30
f 3//3 2//2 30//30
f 4//4 3//3 31//31
f 3//3 30//30 31//31
f 5//5 4//4 32//32
f 4//4 31//31 32//32
f 6//6 5//5 33//33
f 5//5 32//32 33//33
f 7//7 6//6 34//34
f 6//6 33//33 34//34
f 8//8 7//7 35//35
f 7//7 34//34 35//35
f 9//9 8//8 36//36
f 8//8 35//35 36//36
f 10//10 9//9 37//37
f 9//9 36//36 37//37
f 11//11 10//10 38//38
f 10//10 37//37 38//38
f 12//12 11//11 39//39
f 11//11 38//38 39//39
f 13//13 12//12 40//40
f 12//12 39//39 40//40
f 13//13 40//40 41//41
f 14//14 13//13 41//41
f 14//14 41//41 42//42
f 15//15 14//14 42//42
f 16//16 15//15 42//42
f 17//17 16//16 43//43
f 16//16 42//42 43//43
f 17//17 43//43 44//44
f 18//18 17//17 45//45
f 19//19 18//18 45//45
f 17//17 44//44 45//45
f 19//19 45//45 46//46
f 20//20 19//19 47//47
f 19//19 46//46 47//47
f 21//21 20//20 48//48
f 20//20 47//47 48//48
f 22//22 21//21 49//49
f 21//21 48//48 49//49
f 23//23 22//22 50//50
f 22//22 49//49 50//50
f 24//24 23//23 51//51
f 23//23 50//50 51//51
f 25//25 24//24 52//52
f 24//24 51//51 52//52
f 26//26 25//25 53//53
f 25//25 52//52 53//53
f 27//27 26//26 54//54
f 26//26 53//53 54//54
f 28//28 27//27 29//29
f 27//27 54//54 29//29
f 56//56 55//55 58//58
f 57//57 56//56 58//58
f 60//60 59//59 58//58
f 61//61 60//60 58//58
f 62//62 61//61 58//58
f 63//63 62//62 58//58
f 64//64 63//63 58//58
f 65//65 64//64 58//58
f 66//66 65//65 58//58
f 67//67 66//66 58//58
f 68//68 67//67 58//58
f 69//69 68//68 58//58
f 70//70 69//69 58//58
f 71//71 70//70 58//58
f 72//72 71//71 58//58
f 73//73 72//72 58//58
f 74//74 73//73 58//58
f 75//75 74//74 58//58
f 76//76 75//75 58//58
f 77//77 76//76 58//58
f 78//78 77//77 58//58
f 79//79 78//78 58//58
f 80//80 79//79 58//58
f 55//55 80//80 58//58
f 84//84 81//81 82//82
f 84//84 82//82 83//83
f 84//84 85//85 86//86
f 84//84 86//86 87//87
f 84//84 87//87 88//88
f 84//84 88//88 89//89
f 84//84 89//89 90//90
f 84//84 90//90 91//91
f 84//84 91//91 92//92
f 84//84 92//92 93//93
f 84//84 93//93 94//94
f 84//84 94//94 95//95
f 84//84 95//95 96//96
f 84//84 96//96 97//97
f 84//84 97//97 98//98
f 84//84 98//98 99//99
f 84//84 99//99 100//100
f 84//84 100//100 101//101
f 84//84 101//101 102//102
f 84//84 102//102 103//103
f 84//84 103//103 104//104
f 84//84 104//104 105//105
f 84//84 105//105 106//106
f 84//84 106//106 81//81
