# File generated by IfcOpenShell v0.7.0-f7c03db75
mtllib IfcDuctSegment-矩形风管_底对齐_5459556-1u2cPd2g9FKBj3GVa6tCJ4-0602225527247005.mtl
g product-780a6667-0aa2-4f50-bb43-41f906dcc4c4-body
s 1
v -1.48769885299771e-14 4.49640324973188e-15 0
v -1.48769885299771e-14 4.49640324973188e-15 0.319999999999997
v 2.55123036322865 4.49640324973188e-15 0.319999999999997
v 2.55123036322865 4.49640324973188e-15 0
v 2.55123036322865 4.49640324973188e-15 0
v 2.55123036322865 4.49640324973188e-15 0.319999999999997
v 2.55123036322865 0.799999999999996 0.319999999999997
v 2.55123036322865 0.799999999999996 0
v 2.55123036322865 0.799999999999996 0
v 2.55123036322865 0.799999999999996 0.319999999999997
v -1.48769885299771e-14 0.799999999999996 0.319999999999997
v -1.48769885299771e-14 0.799999999999996 0
v -1.48769885299771e-14 0.799999999999996 0
v -1.48769885299771e-14 0.799999999999996 0.319999999999997
v -1.48769885299771e-14 4.49640324973188e-15 0.319999999999997
v -1.48769885299771e-14 4.49640324973188e-15 0
v -1.48769885299771e-14 4.49640324973188e-15 0
v 2.55123036322865 4.49640324973188e-15 0
v 2.55123036322865 0.799999999999996 0
v -1.48769885299771e-14 0.799999999999996 0
v -1.48769885299771e-14 4.49640324973188e-15 0.319999999999997
v 2.55123036322865 4.49640324973188e-15 0.319999999999997
v 2.55123036322865 0.799999999999996 0.319999999999997
v -1.48769885299771e-14 0.799999999999996 0.319999999999997
vn 0 -1 0
vn 0 -1 0
vn 0 -1 0
vn 0 -1 0
vn 1 0 0
vn 1 0 0
vn 1 0 0
vn 1 0 0
vn 0 1 0
vn 0 1 0
vn 0 1 0
vn 0 1 0
vn -1 -0 -0
vn -1 -0 -0
vn -1 -0 -0
vn -1 -0 -0
vn -0 -0 -1
vn -0 -0 -1
vn -0 -0 -1
vn -0 -0 -1
vn 0 0 1
vn 0 0 1
vn 0 0 1
vn 0 0 1
usemtl DefaultMaterial
f 2//2 1//1 4//4
f 3//3 2//2 4//4
f 6//6 5//5 8//8
f 7//7 6//6 8//8
f 10//10 9//9 12//12
f 11//11 10//10 12//12
f 14//14 13//13 16//16
f 15//15 14//14 16//16
f 18//18 17//17 19//19
f 17//17 20//20 19//19
f 23//23 21//21 22//22
f 23//23 24//24 21//21
