# File generated by IfcOpenShell v0.7.0-f7c03db75
mtllib IfcDuctSegment-矩形风管_排风管_864276-0nVg1YpWT6kOKrjALW0rbm-0602234849210185.mtl
g product-317ea062-ce07-46b9-8535-b4a560035970-body
s 1
v 0.441941736120405 0.0883883455271312 1.94289029309402e-15
v 0.0883883455271237 0.441941736120411 1.99840144432528e-15
v -9.93649607039515e-15 0.353553390593277 0.216506352678049
v 0.353553390593272 -2.92821322744885e-15 0.216506352678049
v 0.353553390593272 -2.92821322744885e-15 0.216506352678049
v -9.93649607039515e-15 0.353553390593277 0.216506352678049
v 0.159232399285138 0.512785789878425 0.346519058107152
v 0.512785789878419 0.159232399285145 0.346519058107152
v 0.512785789878419 0.159232399285145 0.346519058107152
v 0.159232399285138 0.512785789878425 0.346519058107152
v 0.247620744812271 0.60117413540556 0.130012705429105
v 0.601174135405553 0.247620744812279 0.130012705429105
v 0.601174135405553 0.247620744812279 0.130012705429105
v 0.247620744812271 0.60117413540556 0.130012705429105
v 0.0883883455271237 0.441941736120411 1.99840144432528e-15
v 0.441941736120405 0.0883883455271312 1.94289029309402e-15
v 0.441941736120405 0.0883883455271312 1.94289029309402e-15
v 0.353553390593272 -2.92821322744885e-15 0.216506352678049
v 0.512785789878419 0.159232399285145 0.346519058107152
v 0.601174135405553 0.247620744812279 0.130012705429105
v 0.0883883455271237 0.441941736120411 1.94289029309402e-15
v -1.00336405850499e-14 0.353553390593277 0.216506352678049
v 0.159232399285138 0.512785789878425 0.346519058107152
v 0.247620744812271 0.601174135405559 0.130012705429105
vn -0.612372440594458 -0.61237244059446 -0.499999988000772
vn -0.612372440594458 -0.61237244059446 -0.499999988000772
vn -0.612372440594458 -0.61237244059446 -0.499999988000772
vn -0.612372440594458 -0.61237244059446 -0.499999988000772
vn -0.353553382108537 -0.353553382108539 0.866025410712196
vn -0.353553382108537 -0.353553382108539 0.866025410712196
vn -0.353553382108537 -0.353553382108539 0.866025410712196
vn -0.353553382108537 -0.353553382108539 0.866025410712196
vn 0.612372440594458 0.61237244059446 0.499999988000772
vn 0.612372440594458 0.61237244059446 0.499999988000772
vn 0.612372440594458 0.61237244059446 0.499999988000772
vn 0.612372440594458 0.61237244059446 0.499999988000772
vn 0.353553382108537 0.353553382108539 -0.866025410712196
vn 0.353553382108537 0.353553382108539 -0.866025410712196
vn 0.353553382108537 0.353553382108539 -0.866025410712196
vn 0.353553382108537 0.353553382108539 -0.866025410712196
vn 0.707106781186549 -0.707106781186546 2.77555756156289e-17
vn 0.707106781186549 -0.707106781186546 2.77555756156289e-17
vn 0.707106781186549 -0.707106781186546 2.77555756156289e-17
vn 0.707106781186549 -0.707106781186546 2.77555756156289e-17
vn -0.707106781186549 0.707106781186546 -2.77555756156289e-17
vn -0.707106781186549 0.707106781186546 -2.77555756156289e-17
vn -0.707106781186549 0.707106781186546 -2.77555756156289e-17
vn -0.707106781186549 0.707106781186546 -2.77555756156289e-17
usemtl DefaultMaterial
f 2//2 1//1 4//4
f 3//3 2//2 4//4
f 6//6 5//5 8//8
f 7//7 6//6 8//8
f 10//10 9//9 12//12
f 11//11 10//10 12//12
f 14//14 13//13 16//16
f 15//15 14//14 16//16
f 20//20 19//19 18//18
f 17//17 20//20 18//18
f 22//22 23//23 24//24
f 22//22 24//24 21//21
