# File generated by IfcOpenShell v0.7.0-f7c03db75
mtllib IfcDuctSegment-矩形风管_镀锌钢板-法兰_817002-3XnnCkMGj0F9_t90l9u76U-0602233427494499.mtl
g product-e1c7132e-590b-403c-9fb7-240bc9e0719e-body
s 1
v -1.69864122767649e-14 1.49880108324396e-15 0
v -1.69864122767649e-14 1.49880108324396e-15 0.199999999999998
v 0.691929280522479 1.49880108324396e-15 0.199999999999998
v 0.691929280522479 1.49880108324396e-15 0
v 0.691929280522479 1.49880108324396e-15 0
v 0.691929280522479 1.49880108324396e-15 0.199999999999998
v 0.691929280522479 0.319999999999999 0.199999999999998
v 0.691929280522479 0.319999999999999 0
v 0.691929280522479 0.319999999999999 0
v 0.691929280522479 0.319999999999999 0.199999999999998
v -1.69864122767649e-14 0.319999999999999 0.199999999999998
v -1.69864122767649e-14 0.319999999999999 0
v -1.69864122767649e-14 0.319999999999999 0
v -1.69864122767649e-14 0.319999999999999 0.199999999999998
v -1.69864122767649e-14 1.49880108324396e-15 0.199999999999998
v -1.69864122767649e-14 1.49880108324396e-15 0
v -1.69864122767649e-14 1.49880108324396e-15 0
v 0.691929280522479 1.49880108324396e-15 0
v 0.691929280522479 0.319999999999999 0
v -1.69864122767649e-14 0.319999999999999 0
v -1.69864122767649e-14 1.49880108324396e-15 0.199999999999998
v 0.691929280522479 1.49880108324396e-15 0.199999999999998
v 0.691929280522479 0.319999999999999 0.199999999999998
v -1.69864122767649e-14 0.319999999999999 0.199999999999998
vn 0 -1 0
vn 0 -1 0
vn 0 -1 0
vn 0 -1 0
vn 1 0 0
vn 1 0 0
vn 1 0 0
vn 1 0 0
vn 0 1 0
vn 0 1 0
vn 0 1 0
vn 0 1 0
vn -1 -0 -0
vn -1 -0 -0
vn -1 -0 -0
vn -1 -0 -0
vn -0 -0 -1
vn -0 -0 -1
vn -0 -0 -1
vn -0 -0 -1
vn 0 0 1
vn 0 0 1
vn 0 0 1
vn 0 0 1
usemtl DefaultMaterial
f 2//2 1//1 4//4
f 3//3 2//2 4//4
f 6//6 5//5 8//8
f 7//7 6//6 8//8
f 10//10 9//9 12//12
f 11//11 10//10 12//12
f 14//14 13//13 16//16
f 15//15 14//14 16//16
f 18//18 17//17 19//19
f 17//17 20//20 19//19
f 23//23 21//21 22//22
f 23//23 24//24 21//21
