# File generated by IfcOpenShell v0.7.0-f7c03db75
mtllib IfcDuctSegment-矩形风管_镀锌钢板-T型三通底对齐_1285413-1Sq8uM3mPCYuq5suIx$_r$-0602233226742171.mtl
g product-5cd08e16-0f06-4c8b-8d05-db84bbffed7f-body
s 1
v -1.64313007644523e-14 1.51687798224374 0
v -1.64313007644523e-14 1.51687798224374 0.119999999999999
v 1.03044790031689 2.22044604925031e-15 0.119999999999999
v 1.03044790031689 2.22044604925031e-15 0
v 1.03044790031689 2.22044604925031e-15 0
v 1.03044790031689 2.22044604925031e-15 0.119999999999999
v 1.16279787916092 0.0899081926188258 0.119999999999999
v 1.16279787916092 0.0899081926188258 0
v 1.16279787916092 0.0899081926188258 0
v 1.16279787916092 0.0899081926188258 0.119999999999999
v 0.132349978844019 1.60678617486257 0.119999999999999
v 0.132349978844019 1.60678617486257 0
v 0.132349978844019 1.60678617486257 0
v 0.132349978844019 1.60678617486257 0.119999999999999
v -1.64313007644523e-14 1.51687798224374 0.119999999999999
v -1.64313007644523e-14 1.51687798224374 0
v -1.64313007644523e-14 1.51687798224374 0
v 1.03044790031689 2.22044604925031e-15 0
v 1.16279787916092 0.0899081926188258 0
v 0.132349978844019 1.60678617486257 0
v -1.64313007644523e-14 1.51687798224374 0.119999999999999
v 1.03044790031689 2.22044604925031e-15 0.119999999999999
v 1.16279787916092 0.0899081926188258 0.119999999999999
v 0.132349978844019 1.60678617486257 0.119999999999999
vn -0.827187367775219 -0.561926203867647 -0
vn -0.827187367775219 -0.561926203867647 -0
vn -0.827187367775219 -0.561926203867647 -0
vn -0.827187367775219 -0.561926203867647 -0
vn 0.561926203867647 -0.827187367775219 0
vn 0.561926203867647 -0.827187367775219 0
vn 0.561926203867647 -0.827187367775219 0
vn 0.561926203867647 -0.827187367775219 0
vn 0.827187367775219 0.561926203867647 0
vn 0.827187367775219 0.561926203867647 0
vn 0.827187367775219 0.561926203867647 0
vn 0.827187367775219 0.561926203867647 0
vn -0.561926203867647 0.827187367775219 0
vn -0.561926203867647 0.827187367775219 0
vn -0.561926203867647 0.827187367775219 0
vn -0.561926203867647 0.827187367775219 0
vn 0 0 -1
vn 0 0 -1
vn 0 0 -1
vn 0 0 -1
vn 0 0 1
vn 0 0 1
vn 0 0 1
vn 0 0 1
usemtl DefaultMaterial
f 2//2 1//1 4//4
f 3//3 2//2 4//4
f 6//6 5//5 8//8
f 7//7 6//6 8//8
f 10//10 9//9 12//12
f 11//11 10//10 12//12
f 14//14 13//13 16//16
f 15//15 14//14 16//16
f 18//18 17//17 19//19
f 17//17 20//20 19//19
f 23//23 21//21 22//22
f 23//23 24//24 21//21
