# File generated by IfcOpenShell v0.7.0-f7c03db75
mtllib IfcDuctSegment-矩形风管_镀锌钢板-法兰_1108049-3h6PVOSLj9lfZ2zHJmhUac-0602230935339084.mtl
g product-eb1997d8-715b-49be-98c2-f514f0ade926-body
s 1
v -1.72986625024407e-14 0 0
v -1.72986625024407e-14 0 0.63
v 0.0906408474782237 0 0.63
v 0.0906408474782237 0 0
v 0.0906408474782237 0 0
v 0.0906408474782237 0 0.63
v 0.0906408474782237 0.8 0.63
v 0.0906408474782237 0.8 0
v 0.0906408474782237 0.8 0
v 0.0906408474782237 0.8 0.63
v -1.72986625024407e-14 0.8 0.63
v -1.72986625024407e-14 0.8 0
v -1.72986625024407e-14 0.8 0
v -1.72986625024407e-14 0.8 0.63
v -1.72986625024407e-14 0 0.63
v -1.72986625024407e-14 0 0
v -1.72986625024407e-14 0 0
v 0.0906408474782237 0 0
v 0.0906408474782237 0.8 0
v -1.72986625024407e-14 0.8 0
v -1.72986625024407e-14 0 0.63
v 0.0906408474782237 0 0.63
v 0.0906408474782237 0.8 0.63
v -1.72986625024407e-14 0.8 0.63
vn 0 -1 0
vn 0 -1 0
vn 0 -1 0
vn 0 -1 0
vn 1 0 0
vn 1 0 0
vn 1 0 0
vn 1 0 0
vn 0 1 0
vn 0 1 0
vn 0 1 0
vn 0 1 0
vn -1 -0 -0
vn -1 -0 -0
vn -1 -0 -0
vn -1 -0 -0
vn -0 -0 -1
vn -0 -0 -1
vn -0 -0 -1
vn -0 -0 -1
vn 0 0 1
vn 0 0 1
vn 0 0 1
vn 0 0 1
usemtl DefaultMaterial
f 2//2 1//1 4//4
f 3//3 2//2 4//4
f 6//6 5//5 8//8
f 7//7 6//6 8//8
f 10//10 9//9 12//12
f 11//11 10//10 12//12
f 14//14 13//13 16//16
f 15//15 14//14 16//16
f 18//18 17//17 19//19
f 17//17 20//20 19//19
f 23//23 21//21 22//22
f 23//23 24//24 21//21
