# File generated by IfcOpenShell v0.7.0-f7c03db75
mtllib IfcDuctSegment-矩形风管_XF空调新风管_1102208-0qu9sz8zP4JwWj0vHdNdfe-0603101451839620.mtl
g product-34e09dbd-23d6-444f-a82d-0394675e7a68-body
s 1
v 0.204795598711287 0.791560054960275 0
v 0.204795598711287 0.791560054960275 0.4
v 0.115899436544907 0.804576142674033 0.4
v 0.115899436544907 0.804576142674033 0
v 0.115899436544907 0.804576142674033 0
v 0.115899436544907 0.804576142674033 0.4
v 2.03406735899136e-13 0.0130160877137935 0.4
v 2.03406735899136e-13 0.0130160877137935 0
v 2.03406735899136e-13 0.0130160877137935 0
v 2.03406735899136e-13 0.0130160877137935 0.4
v 0.0888961621665833 3.50830475781549e-14 0.4
v 0.0888961621665833 3.50830475781549e-14 0
v 0.0888961621665833 3.50830475781549e-14 0
v 0.0888961621665833 3.50830475781549e-14 0.4
v 0.204795598711287 0.791560054960275 0.4
v 0.204795598711287 0.791560054960275 0
v 0.204795598711287 0.791560054960275 0
v 0.115899436544907 0.804576142674033 0
v 2.03406735899136e-13 0.0130160877137935 0
v 0.0888961621665833 3.50830475781549e-14 0
v 0.204795598711287 0.791560054960275 0.4
v 0.115899436544907 0.804576142674033 0.4
v 2.03406735899136e-13 0.0130160877137935 0.4
v 0.0888961621665833 3.50830475781549e-14 0.4
vn 0.144874295680875 0.989450068700271 0
vn 0.144874295680875 0.989450068700271 0
vn 0.144874295680875 0.989450068700271 0
vn 0.144874295680875 0.989450068700271 0
vn -0.989450068700271 0.144874295680875 0
vn -0.989450068700271 0.144874295680875 0
vn -0.989450068700271 0.144874295680875 0
vn -0.989450068700271 0.144874295680875 0
vn -0.144874295680875 -0.989450068700271 -0
vn -0.144874295680875 -0.989450068700271 -0
vn -0.144874295680875 -0.989450068700271 -0
vn -0.144874295680875 -0.989450068700271 -0
vn 0.989450068700271 -0.144874295680875 0
vn 0.989450068700271 -0.144874295680875 0
vn 0.989450068700271 -0.144874295680875 0
vn 0.989450068700271 -0.144874295680875 0
vn -0 -0 -1
vn -0 -0 -1
vn -0 -0 -1
vn -0 -0 -1
vn 0 0 1
vn 0 0 1
vn 0 0 1
vn 0 0 1
usemtl DefaultMaterial
f 2//2 1//1 4//4
f 3//3 2//2 4//4
f 6//6 5//5 8//8
f 7//7 6//6 8//8
f 10//10 9//9 12//12
f 11//11 10//10 12//12
f 14//14 13//13 16//16
f 15//15 14//14 16//16
f 18//18 17//17 19//19
f 17//17 20//20 19//19
f 23//23 21//21 22//22
f 23//23 24//24 21//21
