# File generated by IfcOpenShell v0.7.0-f7c03db75
mtllib IfcDuctSegment-矩形风管_双面镀锌钢管酚醛复合风管（中对齐）_838588-2R8pe5I6TA2eVa6Kvl5vvd-0602225232422655.mtl
g product-9b233a05-4867-4a0a-87e4-194e6f179e67-body
s 1
v 0.0558612969273539 0.37224481852962 0
v 0.0558612969273539 0.37224481852962 0.120000000000001
v 5.71764857681956e-15 0.229275873886076 0.120000000000001
v 5.71764857681956e-15 0.229275873886076 0
v 5.71764857681956e-15 0.229275873886076 0
v 5.71764857681956e-15 0.229275873886076 0.120000000000001
v 0.586798580139552 -2.02060590481778e-14 0.120000000000001
v 0.586798580139552 -2.02060590481778e-14 0
v 0.586798580139552 -2.02060590481778e-14 0
v 0.586798580139552 -2.02060590481778e-14 0.120000000000001
v 0.6426598770669 0.142968944643524 0.120000000000001
v 0.6426598770669 0.142968944643524 0
v 0.6426598770669 0.142968944643524 0
v 0.6426598770669 0.142968944643524 0.120000000000001
v 0.0558612969273539 0.37224481852962 0.120000000000001
v 0.0558612969273539 0.37224481852962 0
v 0.0558612969273539 0.37224481852962 0
v 5.71764857681956e-15 0.229275873886076 0
v 0.586798580139552 -2.02060590481778e-14 0
v 0.6426598770669 0.142968944643524 0
v 0.0558612969273539 0.37224481852962 0.120000000000001
v 5.71764857681956e-15 0.229275873886076 0.120000000000001
v 0.586798580139552 -2.02060590481778e-14 0.120000000000001
v 0.6426598770669 0.142968944643524 0.120000000000001
vn -0.931426317681796 0.363929958549349 0
vn -0.931426317681796 0.363929958549349 0
vn -0.931426317681796 0.363929958549349 0
vn -0.931426317681796 0.363929958549349 0
vn -0.363929958549349 -0.931426317681796 -0
vn -0.363929958549349 -0.931426317681796 -0
vn -0.363929958549349 -0.931426317681796 -0
vn -0.363929958549349 -0.931426317681796 -0
vn 0.931426317681796 -0.363929958549349 0
vn 0.931426317681796 -0.363929958549349 0
vn 0.931426317681796 -0.363929958549349 0
vn 0.931426317681796 -0.363929958549349 0
vn 0.363929958549349 0.931426317681796 0
vn 0.363929958549349 0.931426317681796 0
vn 0.363929958549349 0.931426317681796 0
vn 0.363929958549349 0.931426317681796 0
vn -0 -0 -1
vn -0 -0 -1
vn -0 -0 -1
vn -0 -0 -1
vn 0 0 1
vn 0 0 1
vn 0 0 1
vn 0 0 1
usemtl DefaultMaterial
f 2//2 1//1 4//4
f 3//3 2//2 4//4
f 6//6 5//5 8//8
f 7//7 6//6 8//8
f 10//10 9//9 12//12
f 11//11 10//10 12//12
f 14//14 13//13 16//16
f 15//15 14//14 16//16
f 18//18 17//17 19//19
f 17//17 20//20 19//19
f 23//23 21//21 22//22
f 23//23 24//24 21//21
