# File generated by IfcOpenShell v0.7.0-f7c03db75
mtllib IfcDuctSegment-矩形风管_镀锌钢板-法兰_937429-3C0t62IHH4$uz8r_0OddyH-0602225021565207.mtl
g product-cc037182-4914-44ff-8f48-d7e0189e7f11-body
s 1
v 1.62231339473351e-14 0.103169879027397 0
v 1.62231339473351e-14 0.103169879027397 0.120000000000007
v 0.113071864284865 2.67286193178506e-14 0.120000000000007
v 0.113071864284865 2.67286193178506e-14 0
v 0.113071864284865 2.67286193178506e-14 0
v 0.113071864284865 2.67286193178506e-14 0.120000000000007
v 0.220915251832886 0.118193924387717 0.120000000000007
v 0.220915251832886 0.118193924387717 0
v 0.220915251832886 0.118193924387717 0
v 0.220915251832886 0.118193924387717 0.120000000000007
v 0.107843387548037 0.221363803415087 0.120000000000007
v 0.107843387548037 0.221363803415087 0
v 0.107843387548037 0.221363803415087 0
v 0.107843387548037 0.221363803415087 0.120000000000007
v 1.62231339473351e-14 0.103169879027397 0.120000000000007
v 1.62231339473351e-14 0.103169879027397 0
v 1.62231339473351e-14 0.103169879027397 0
v 0.113071864284865 2.67286193178506e-14 0
v 0.220915251832886 0.118193924387717 0
v 0.107843387548037 0.221363803415087 0
v 1.62231339473351e-14 0.103169879027397 0.120000000000007
v 0.113071864284865 2.67286193178506e-14 0.120000000000007
v 0.220915251832886 0.118193924387717 0.120000000000007
v 0.107843387548037 0.221363803415087 0.120000000000007
vn -0.674021172175187 -0.738712027423127 -0
vn -0.674021172175187 -0.738712027423127 -0
vn -0.674021172175187 -0.738712027423127 -0
vn -0.674021172175187 -0.738712027423127 -0
vn 0.738712027423127 -0.674021172175187 0
vn 0.738712027423127 -0.674021172175187 0
vn 0.738712027423127 -0.674021172175187 0
vn 0.738712027423127 -0.674021172175187 0
vn 0.674021172175187 0.738712027423127 0
vn 0.674021172175187 0.738712027423127 0
vn 0.674021172175187 0.738712027423127 0
vn 0.674021172175187 0.738712027423127 0
vn -0.738712027423127 0.674021172175187 0
vn -0.738712027423127 0.674021172175187 0
vn -0.738712027423127 0.674021172175187 0
vn -0.738712027423127 0.674021172175187 0
vn 0 0 -1
vn 0 0 -1
vn 0 0 -1
vn 0 0 -1
vn 0 0 1
vn 0 0 1
vn 0 0 1
vn 0 0 1
usemtl DefaultMaterial
f 2//2 1//1 4//4
f 3//3 2//2 4//4
f 6//6 5//5 8//8
f 7//7 6//6 8//8
f 10//10 9//9 12//12
f 11//11 10//10 12//12
f 14//14 13//13 16//16
f 15//15 14//14 16//16
f 18//18 17//17 19//19
f 17//17 20//20 19//19
f 23//23 21//21 22//22
f 23//23 24//24 21//21
