# File generated by IfcOpenShell v0.7.0-f7c03db75
mtllib IfcDuctSegment-矩形风管_底对齐_5429409-0yG6o2Wn57hxq0kPUsPRzD-0602225322838605.mtl
g product-3c406c82-8311-47af-bd00-b997b665bf4d-body
s 1
v 0.200000000000004 -1.99840144432528e-14 0
v 0.200000000000004 -1.99840144432528e-14 0.159999999999998
v 0.200000000000004 2.08989863174684 0.159999999999998
v 0.200000000000004 2.08989863174684 0
v 0.200000000000004 2.08989863174684 0
v 0.200000000000004 2.08989863174684 0.159999999999998
v -3.49720252756924e-15 2.08989863174684 0.159999999999998
v -3.49720252756924e-15 2.08989863174684 0
v -3.49720252756924e-15 2.08989863174684 0
v -3.49720252756924e-15 2.08989863174684 0.159999999999998
v -3.49720252756924e-15 -1.99840144432528e-14 0.159999999999998
v -3.49720252756924e-15 -1.99840144432528e-14 0
v -3.49720252756924e-15 -1.99840144432528e-14 0
v -3.49720252756924e-15 -1.99840144432528e-14 0.159999999999998
v 0.200000000000004 -1.99840144432528e-14 0.159999999999998
v 0.200000000000004 -1.99840144432528e-14 0
v 0.200000000000004 -1.99840144432528e-14 0
v 0.200000000000004 2.08989863174684 0
v -3.49720252756924e-15 2.08989863174684 0
v -3.49720252756924e-15 -1.99840144432528e-14 0
v 0.200000000000004 -1.99840144432528e-14 0.159999999999998
v 0.200000000000004 2.08989863174684 0.159999999999998
v -3.49720252756924e-15 2.08989863174684 0.159999999999998
v -3.49720252756924e-15 -1.99840144432528e-14 0.159999999999998
vn 1 0 0
vn 1 0 0
vn 1 0 0
vn 1 0 0
vn 0 1 0
vn 0 1 0
vn 0 1 0
vn 0 1 0
vn -1 -0 -0
vn -1 -0 -0
vn -1 -0 -0
vn -1 -0 -0
vn 0 -1 0
vn 0 -1 0
vn 0 -1 0
vn 0 -1 0
vn 0 0 -1
vn 0 0 -1
vn 0 0 -1
vn 0 0 -1
vn 0 0 1
vn 0 0 1
vn 0 0 1
vn 0 0 1
usemtl DefaultMaterial
f 2//2 1//1 4//4
f 3//3 2//2 4//4
f 6//6 5//5 8//8
f 7//7 6//6 8//8
f 10//10 9//9 12//12
f 11//11 10//10 12//12
f 14//14 13//13 16//16
f 15//15 14//14 16//16
f 18//18 17//17 19//19
f 17//17 20//20 19//19
f 23//23 21//21 22//22
f 23//23 24//24 21//21
