# File generated by IfcOpenShell v0.7.0-f7c03db75
mtllib IfcDuctSegment-矩形风管_半径弯头_接头_723337-0xPILhCKvAPQqrU9oQRo8Y-0602232103523603.mtl
g product-3b65256b-314e-4a65-ad35-789c9a6f2222-body
s 1
v 1.0991207943789e-14 0 0
v 1.0991207943789e-14 0 0.350000000000001
v 1.89699999999999 0 0.350000000000001
v 1.89699999999999 0 0
v 1.89699999999999 0 0
v 1.89699999999999 0 0.350000000000001
v 1.89699999999999 1 0.350000000000001
v 1.89699999999999 1 0
v 1.89699999999999 1 0
v 1.89699999999999 1 0.350000000000001
v 1.0991207943789e-14 1 0.350000000000001
v 1.0991207943789e-14 1 0
v 1.0991207943789e-14 1 0
v 1.0991207943789e-14 1 0.350000000000001
v 1.0991207943789e-14 0 0.350000000000001
v 1.0991207943789e-14 0 0
v 1.0991207943789e-14 0 0
v 1.89699999999999 0 0
v 1.89699999999999 1 0
v 1.0991207943789e-14 1 0
v 1.0991207943789e-14 0 0.350000000000001
v 1.89699999999999 0 0.350000000000001
v 1.89699999999999 1 0.350000000000001
v 1.0991207943789e-14 1 0.350000000000001
vn 0 -1 0
vn 0 -1 0
vn 0 -1 0
vn 0 -1 0
vn 1 0 0
vn 1 0 0
vn 1 0 0
vn 1 0 0
vn 0 1 0
vn 0 1 0
vn 0 1 0
vn 0 1 0
vn -1 -0 -0
vn -1 -0 -0
vn -1 -0 -0
vn -1 -0 -0
vn -0 -0 -1
vn -0 -0 -1
vn -0 -0 -1
vn -0 -0 -1
vn 0 0 1
vn 0 0 1
vn 0 0 1
vn 0 0 1
usemtl DefaultMaterial
f 2//2 1//1 4//4
f 3//3 2//2 4//4
f 6//6 5//5 8//8
f 7//7 6//6 8//8
f 10//10 9//9 12//12
f 11//11 10//10 12//12
f 14//14 13//13 16//16
f 15//15 14//14 16//16
f 18//18 17//17 19//19
f 17//17 20//20 19//19
f 23//23 21//21 22//22
f 23//23 24//24 21//21
