# File generated by IfcOpenShell v0.7.0-f7c03db75
mtllib IfcDuctSegment-矩形风管_正压送风_1183824-2W6G$C0Fv9s9MlDIfpty9Y-0602225626735748.mtl
g product-a0190fcc-00fe-49d8-95af-352a73dfc262-body
s 1
v 8.88178419700125e-15 1.89675378544246 0
v 8.88178419700125e-15 1.89675378544246 0.25
v 2.63445907042502 -1.19904086659517e-14 0.25
v 2.63445907042502 -1.19904086659517e-14 0
v 2.63445907042502 -1.19904086659517e-14 0
v 2.63445907042502 -1.19904086659517e-14 0.25
v 3.07267898051575 0.608656972686643 0.25
v 3.07267898051575 0.608656972686643 0
v 3.07267898051575 0.608656972686643 0
v 3.07267898051575 0.608656972686643 0.25
v 0.438219910090744 2.50541075812911 0.25
v 0.438219910090744 2.50541075812911 0
v 0.438219910090744 2.50541075812911 0
v 0.438219910090744 2.50541075812911 0.25
v 8.88178419700125e-15 1.89675378544246 0.25
v 8.88178419700125e-15 1.89675378544246 0
v 8.88178419700125e-15 1.89675378544246 0
v 2.63445907042502 -1.19904086659517e-14 0
v 3.07267898051575 0.608656972686643 0
v 0.438219910090744 2.50541075812911 0
v 8.88178419700125e-15 1.89675378544246 0.25
v 2.63445907042502 -1.19904086659517e-14 0.25
v 3.07267898051575 0.608656972686643 0.25
v 0.438219910090744 2.50541075812911 0.25
vn -0.584293213454305 -0.811542630248863 -0
vn -0.584293213454305 -0.811542630248863 -0
vn -0.584293213454305 -0.811542630248863 -0
vn -0.584293213454305 -0.811542630248863 -0
vn 0.811542630248863 -0.584293213454305 0
vn 0.811542630248863 -0.584293213454305 0
vn 0.811542630248863 -0.584293213454305 0
vn 0.811542630248863 -0.584293213454305 0
vn 0.584293213454305 0.811542630248863 0
vn 0.584293213454305 0.811542630248863 0
vn 0.584293213454305 0.811542630248863 0
vn 0.584293213454305 0.811542630248863 0
vn -0.811542630248863 0.584293213454305 0
vn -0.811542630248863 0.584293213454305 0
vn -0.811542630248863 0.584293213454305 0
vn -0.811542630248863 0.584293213454305 0
vn 0 0 -1
vn 0 0 -1
vn 0 0 -1
vn 0 0 -1
vn 0 0 1
vn 0 0 1
vn 0 0 1
vn 0 0 1
usemtl DefaultMaterial
f 2//2 1//1 4//4
f 3//3 2//2 4//4
f 6//6 5//5 8//8
f 7//7 6//6 8//8
f 10//10 9//9 12//12
f 11//11 10//10 12//12
f 14//14 13//13 16//16
f 15//15 14//14 16//16
f 18//18 17//17 19//19
f 17//17 20//20 19//19
f 23//23 21//21 22//22
f 23//23 24//24 21//21
