# File generated by IfcOpenShell v0.7.0-f7c03db75
mtllib IfcDuctSegment-矩形风管_镀锌钢板-T型三通底对齐_886695-00hU7A1wrBBBmghWM3B9ap-0602232636909365.mtl
g product-00ade1ca-07ad-4b2c-bc2a-ae05832c9933-body
s 1
v -9.99200722162641e-15 2.01050673320795 0
v -9.99200722162641e-15 2.01050673320795 0.159999999999998
v 1.36578053927323 2.22044604925031e-16 0.159999999999998
v 1.36578053927323 2.22044604925031e-16 0
v 1.36578053927323 2.22044604925031e-16 0
v 1.36578053927323 2.22044604925031e-16 0.159999999999998
v 2.02753043482543 0.449540961133309 0.159999999999998
v 2.02753043482543 0.449540961133309 0
v 2.02753043482543 0.449540961133309 0
v 2.02753043482543 0.449540961133309 0.159999999999998
v 0.661749895552186 2.46004769434126 0.159999999999998
v 0.661749895552186 2.46004769434126 0
v 0.661749895552186 2.46004769434126 0
v 0.661749895552186 2.46004769434126 0.159999999999998
v -9.99200722162641e-15 2.01050673320795 0.159999999999998
v -9.99200722162641e-15 2.01050673320795 0
v -9.99200722162641e-15 2.01050673320795 0
v 1.36578053927323 2.22044604925031e-16 0
v 2.02753043482543 0.449540961133309 0
v 0.661749895552186 2.46004769434126 0
v -9.99200722162641e-15 2.01050673320795 0.159999999999998
v 1.36578053927323 2.22044604925031e-16 0.159999999999998
v 2.02753043482543 0.449540961133309 0.159999999999998
v 0.661749895552186 2.46004769434126 0.159999999999998
vn -0.827187369440244 -0.561926201416635 -0
vn -0.827187369440244 -0.561926201416635 -0
vn -0.827187369440244 -0.561926201416635 -0
vn -0.827187369440244 -0.561926201416635 -0
vn 0.561926201416635 -0.827187369440244 0
vn 0.561926201416635 -0.827187369440244 0
vn 0.561926201416635 -0.827187369440244 0
vn 0.561926201416635 -0.827187369440244 0
vn 0.827187369440244 0.561926201416635 0
vn 0.827187369440244 0.561926201416635 0
vn 0.827187369440244 0.561926201416635 0
vn 0.827187369440244 0.561926201416635 0
vn -0.561926201416635 0.827187369440244 0
vn -0.561926201416635 0.827187369440244 0
vn -0.561926201416635 0.827187369440244 0
vn -0.561926201416635 0.827187369440244 0
vn 0 0 -1
vn 0 0 -1
vn 0 0 -1
vn 0 0 -1
vn 0 0 1
vn 0 0 1
vn 0 0 1
vn 0 0 1
usemtl DefaultMaterial
f 2//2 1//1 4//4
f 3//3 2//2 4//4
f 6//6 5//5 8//8
f 7//7 6//6 8//8
f 10//10 9//9 12//12
f 11//11 10//10 12//12
f 14//14 13//13 16//16
f 15//15 14//14 16//16
f 18//18 17//17 19//19
f 17//17 20//20 19//19
f 23//23 21//21 22//22
f 23//23 24//24 21//21
