# File generated by IfcOpenShell v0.7.0-f7c03db75
mtllib IfcDuctSegment-矩形风管_镀锌钢板-法兰_1611525-3LpESjSu90geA6bWqjmFOc-0602230941948531.mtl
g product-d5cce72d-7382-40aa-8286-960d2dc0f626-body
s 1
v 0.36165376927169 0.699322117953195 0
v 0.36165376927169 0.699322117953195 0.32
v 4.44089209850063e-15 0.369373336423591 0.32
v 4.44089209850063e-15 0.369373336423591 0
v 4.44089209850063e-15 0.369373336423591 0
v 4.44089209850063e-15 0.369373336423591 0.32
v 0.336991599805294 2.94764213037979e-14 0.32
v 0.336991599805294 2.94764213037979e-14 0
v 0.336991599805294 2.94764213037979e-14 0
v 0.336991599805294 2.94764213037979e-14 0.32
v 0.69864536907698 0.329948781529633 0.32
v 0.69864536907698 0.329948781529633 0
v 0.69864536907698 0.329948781529633 0
v 0.69864536907698 0.329948781529633 0.32
v 0.36165376927169 0.699322117953195 0.32
v 0.36165376927169 0.699322117953195 0
v 0.36165376927169 0.699322117953195 0
v 4.44089209850063e-15 0.369373336423591 0
v 0.336991599805294 2.94764213037979e-14 0
v 0.69864536907698 0.329948781529633 0
v 0.36165376927169 0.699322117953195 0.32
v 4.44089209850063e-15 0.369373336423591 0.32
v 0.336991599805294 2.94764213037979e-14 0.32
v 0.69864536907698 0.329948781529633 0.32
vn -0.673983199610576 0.738746672847121 0
vn -0.673983199610576 0.738746672847121 0
vn -0.673983199610576 0.738746672847121 0
vn -0.673983199610576 0.738746672847121 0
vn -0.738746672847121 -0.673983199610576 -0
vn -0.738746672847121 -0.673983199610576 -0
vn -0.738746672847121 -0.673983199610576 -0
vn -0.738746672847121 -0.673983199610576 -0
vn 0.673983199610576 -0.738746672847121 0
vn 0.673983199610576 -0.738746672847121 0
vn 0.673983199610576 -0.738746672847121 0
vn 0.673983199610576 -0.738746672847121 0
vn 0.738746672847121 0.673983199610576 0
vn 0.738746672847121 0.673983199610576 0
vn 0.738746672847121 0.673983199610576 0
vn 0.738746672847121 0.673983199610576 0
vn -0 -0 -1
vn -0 -0 -1
vn -0 -0 -1
vn -0 -0 -1
vn 0 0 1
vn 0 0 1
vn 0 0 1
vn 0 0 1
usemtl DefaultMaterial
f 2//2 1//1 4//4
f 3//3 2//2 4//4
f 6//6 5//5 8//8
f 7//7 6//6 8//8
f 10//10 9//9 12//12
f 11//11 10//10 12//12
f 14//14 13//13 16//16
f 15//15 14//14 16//16
f 18//18 17//17 19//19
f 17//17 20//20 19//19
f 23//23 21//21 22//22
f 23//23 24//24 21//21
