# File generated by IfcOpenShell v0.7.0-f7c03db75
mtllib IfcDuctSegment-矩形风管_半径弯头_T 形三通 镀锌钢板_3981015-1ENSEolYH2uw_fu_Jb4_YY-0602232355687832.mtl
g product-4e5dc3b2-be24-42e3-afa9-e3e4e513e8a2-body
s 1
v 0.512100693687101 -3.50830475781549e-14 0
v 0.512100693687101 -3.50830475781549e-14 0.25
v 3.78677449748898 2.72847210445237 0.25
v 3.78677449748898 2.72847210445237 0
v 3.78677449748898 2.72847210445237 0
v 3.78677449748898 2.72847210445237 0.25
v 3.2746738038019 3.34308814681152 0.25
v 3.2746738038019 3.34308814681152 0
v 3.2746738038019 3.34308814681152 0
v 3.2746738038019 3.34308814681152 0.25
v 1.66533453693773e-14 0.614616042359111 0.25
v 1.66533453693773e-14 0.614616042359111 0
v 1.66533453693773e-14 0.614616042359111 0
v 1.66533453693773e-14 0.614616042359111 0.25
v 0.512100693687101 -3.50830475781549e-14 0.25
v 0.512100693687101 -3.50830475781549e-14 0
v 0.512100693687101 -3.50830475781549e-14 0
v 3.78677449748898 2.72847210445237 0
v 3.2746738038019 3.34308814681152 0
v 1.66533453693773e-14 0.614616042359111 0
v 0.512100693687101 -3.50830475781549e-14 0.25
v 3.78677449748898 2.72847210445237 0.25
v 3.2746738038019 3.34308814681152 0.25
v 1.66533453693773e-14 0.614616042359111 0.25
vn 0.640125867108849 -0.768270052948925 0
vn 0.640125867108849 -0.768270052948925 0
vn 0.640125867108849 -0.768270052948925 0
vn 0.640125867108849 -0.768270052948925 0
vn 0.768270052948925 0.640125867108849 0
vn 0.768270052948925 0.640125867108849 0
vn 0.768270052948925 0.640125867108849 0
vn 0.768270052948925 0.640125867108849 0
vn -0.640125867108849 0.768270052948925 0
vn -0.640125867108849 0.768270052948925 0
vn -0.640125867108849 0.768270052948925 0
vn -0.640125867108849 0.768270052948925 0
vn -0.768270052948925 -0.640125867108849 -0
vn -0.768270052948925 -0.640125867108849 -0
vn -0.768270052948925 -0.640125867108849 -0
vn -0.768270052948925 -0.640125867108849 -0
vn 0 0 -1
vn 0 0 -1
vn 0 0 -1
vn 0 0 -1
vn 0 0 1
vn 0 0 1
vn 0 0 1
vn 0 0 1
usemtl DefaultMaterial
f 2//2 1//1 4//4
f 3//3 2//2 4//4
f 6//6 5//5 8//8
f 7//7 6//6 8//8
f 10//10 9//9 12//12
f 11//11 10//10 12//12
f 14//14 13//13 16//16
f 15//15 14//14 16//16
f 18//18 17//17 19//19
f 17//17 20//20 19//19
f 23//23 21//21 22//22
f 23//23 24//24 21//21
