# File generated by IfcOpenShell v0.7.0-f7c03db75
mtllib IfcDuctSegment-矩形风管_送风管_664029-2XFQ1kvYrBB82leXj_JO9K-0602235231229475.mtl
g product-a13da06e-e62d-4b2c-80af-a21b7e4d8254-body
s 1
v 0.5 2.1094237467878e-15 0
v 0.5 2.1094237467878e-15 0.199999999999998
v 0.5 1.29060771954855 0.199999999999998
v 0.5 1.29060771954855 0
v 0.5 1.29060771954855 0
v 0.5 1.29060771954855 0.199999999999998
v -4.9960036108132e-16 1.29060771954855 0.199999999999998
v -4.9960036108132e-16 1.29060771954855 0
v -4.9960036108132e-16 1.29060771954855 0
v -4.9960036108132e-16 1.29060771954855 0.199999999999998
v -4.9960036108132e-16 2.1094237467878e-15 0.199999999999998
v -4.9960036108132e-16 2.1094237467878e-15 0
v -4.9960036108132e-16 2.1094237467878e-15 0
v -4.9960036108132e-16 2.1094237467878e-15 0.199999999999998
v 0.5 2.1094237467878e-15 0.199999999999998
v 0.5 2.1094237467878e-15 0
v 0.5 2.1094237467878e-15 0
v 0.5 1.29060771954855 0
v -4.9960036108132e-16 1.29060771954855 0
v -4.9960036108132e-16 2.1094237467878e-15 0
v 0.5 2.1094237467878e-15 0.199999999999998
v 0.5 1.29060771954855 0.199999999999998
v -4.9960036108132e-16 1.29060771954855 0.199999999999998
v -4.9960036108132e-16 2.1094237467878e-15 0.199999999999998
vn 1 0 0
vn 1 0 0
vn 1 0 0
vn 1 0 0
vn 0 1 0
vn 0 1 0
vn 0 1 0
vn 0 1 0
vn -1 -0 -0
vn -1 -0 -0
vn -1 -0 -0
vn -1 -0 -0
vn 0 -1 0
vn 0 -1 0
vn 0 -1 0
vn 0 -1 0
vn 0 0 -1
vn 0 0 -1
vn 0 0 -1
vn 0 0 -1
vn 0 0 1
vn 0 0 1
vn 0 0 1
vn 0 0 1
usemtl DefaultMaterial
f 2//2 1//1 4//4
f 3//3 2//2 4//4
f 6//6 5//5 8//8
f 7//7 6//6 8//8
f 10//10 9//9 12//12
f 11//11 10//10 12//12
f 14//14 13//13 16//16
f 15//15 14//14 16//16
f 18//18 17//17 19//19
f 17//17 20//20 19//19
f 23//23 21//21 22//22
f 23//23 24//24 21//21
