# File generated by IfcOpenShell v0.7.0-f7c03db75
mtllib IfcDuctSegment-矩形风管_镀锌铁皮（底对齐）_996970-0LM6ZpYhP76R23FSOPxQB0-0602225108451894.mtl
g product-155868f3-8ab6-4719-b083-3dc619eda2c0-body
s 1
v 0.360274056320785 0.00689247778961311 0
v 0.360274056320785 0.00689247778961311 0.2
v 0.319925762873079 1.87972529000898 0.2
v 0.319925762873079 1.87972529000898 0
v 0.319925762873079 1.87972529000898 0
v 0.319925762873079 1.87972529000898 0.2
v 4.71844785465692e-16 1.87283281221936 0.2
v 4.71844785465692e-16 1.87283281221936 0
v 4.71844785465692e-16 1.87283281221936 0
v 4.71844785465692e-16 1.87283281221936 0.2
v 0.0403482934477074 -1.99840144432528e-15 0.2
v 0.0403482934477074 -1.99840144432528e-15 0
v 0.0403482934477074 -1.99840144432528e-15 0
v 0.0403482934477074 -1.99840144432528e-15 0.2
v 0.360274056320785 0.00689247778961311 0.2
v 0.360274056320785 0.00689247778961311 0
v 0.360274056320785 0.00689247778961311 0
v 0.319925762873079 1.87972529000898 0
v 4.71844785465692e-16 1.87283281221936 0
v 0.0403482934477074 -1.99840144432528e-15 0
v 0.360274056320785 0.00689247778961311 0.2
v 0.319925762873079 1.87972529000898 0.2
v 4.71844785465692e-16 1.87283281221936 0.2
v 0.0403482934477074 -1.99840144432528e-15 0.2
vn 0.999768008978363 0.0215389930925472 0
vn 0.999768008978363 0.0215389930925472 0
vn 0.999768008978363 0.0215389930925472 0
vn 0.999768008978363 0.0215389930925472 0
vn -0.0215389930925472 0.999768008978363 0
vn -0.0215389930925472 0.999768008978363 0
vn -0.0215389930925472 0.999768008978363 0
vn -0.0215389930925472 0.999768008978363 0
vn -0.999768008978363 -0.0215389930925472 -0
vn -0.999768008978363 -0.0215389930925472 -0
vn -0.999768008978363 -0.0215389930925472 -0
vn -0.999768008978363 -0.0215389930925472 -0
vn 0.0215389930925472 -0.999768008978363 0
vn 0.0215389930925472 -0.999768008978363 0
vn 0.0215389930925472 -0.999768008978363 0
vn 0.0215389930925472 -0.999768008978363 0
vn -0 -0 -1
vn -0 -0 -1
vn -0 -0 -1
vn -0 -0 -1
vn 0 0 1
vn 0 0 1
vn 0 0 1
vn 0 0 1
usemtl DefaultMaterial
f 2//2 1//1 4//4
f 3//3 2//2 4//4
f 6//6 5//5 8//8
f 7//7 6//6 8//8
f 10//10 9//9 12//12
f 11//11 10//10 12//12
f 14//14 13//13 16//16
f 15//15 14//14 16//16
f 18//18 17//17 19//19
f 17//17 20//20 19//19
f 23//23 21//21 22//22
f 23//23 24//24 21//21
