# File generated by IfcOpenShell v0.7.0-f7c03db75
mtllib IfcDuctSegment-矩形风管_送风管_702430-1jCe54Ez5C$Bg0o6HDTKBf-0602234349543336.mtl
g product-6d328144-3bd1-4cfc-ba80-c8644d7542e9-body
s 1
v 3.08391181628916 0.599999999999998 0
v 3.08391181628916 0.599999999999998 0.249999999999999
v 9.11433373218529e-10 0.600000004684646 0.249999999999999
v 9.11433373218529e-10 0.600000004684646 0
v 9.11433373218529e-10 0.600000004684646 0
v 9.11433373218529e-10 0.600000004684646 0.249999999999999
v -3.10862446895044e-15 4.68464383951428e-09 0.249999999999999
v -3.10862446895044e-15 4.68464383951428e-09 0
v -3.10862446895044e-15 4.68464383951428e-09 0
v -3.10862446895044e-15 4.68464383951428e-09 0.249999999999999
v 3.08391181537773 -3.94129173741931e-15 0.249999999999999
v 3.08391181537773 -3.94129173741931e-15 0
v 3.08391181537773 -3.94129173741931e-15 0
v 3.08391181537773 -3.94129173741931e-15 0.249999999999999
v 3.08391181628916 0.599999999999998 0.249999999999999
v 3.08391181628916 0.599999999999998 0
v 3.08391181628916 0.599999999999998 0
v 9.11433373218529e-10 0.600000004684646 0
v -3.10862446895044e-15 4.68464383951428e-09 0
v 3.08391181537773 -3.94129173741931e-15 0
v 3.08391181628916 0.599999999999998 0.249999999999999
v 9.11433373218529e-10 0.600000004684646 0.249999999999999
v -3.10862446895044e-15 4.68464383951428e-09 0.249999999999999
v 3.08391181537773 -3.94129173741931e-15 0.249999999999999
vn 1.51906023180974e-09 1 0
vn 1.51906023180974e-09 1 0
vn 1.51906023180974e-09 1 0
vn 1.51906023180974e-09 1 0
vn -1 1.51906023180974e-09 0
vn -1 1.51906023180974e-09 0
vn -1 1.51906023180974e-09 0
vn -1 1.51906023180974e-09 0
vn -1.51906023180974e-09 -1 -0
vn -1.51906023180974e-09 -1 -0
vn -1.51906023180974e-09 -1 -0
vn -1.51906023180974e-09 -1 -0
vn 1 -1.51906023180974e-09 0
vn 1 -1.51906023180974e-09 0
vn 1 -1.51906023180974e-09 0
vn 1 -1.51906023180974e-09 0
vn -0 -0 -1
vn -0 -0 -1
vn -0 -0 -1
vn -0 -0 -1
vn 0 0 1
vn 0 0 1
vn 0 0 1
vn 0 0 1
usemtl DefaultMaterial
f 2//2 1//1 4//4
f 3//3 2//2 4//4
f 6//6 5//5 8//8
f 7//7 6//6 8//8
f 10//10 9//9 12//12
f 11//11 10//10 12//12
f 14//14 13//13 16//16
f 15//15 14//14 16//16
f 18//18 17//17 19//19
f 17//17 20//20 19//19
f 23//23 21//21 22//22
f 23//23 24//24 21//21
