# File generated by IfcOpenShell v0.7.0-f7c03db75
mtllib IfcDuctSegment-矩形风管_排烟管_713418-2X4162EufALRyRlBixY8Tw-0602234351239336.mtl
g product-a1101182-3b8a-4a55-bf1b-bcbb3b88877a-body
s 1
v 0.224999999999988 2.87163801431235e-09 -2.22044604925031e-16
v 0.225000006170692 1.00000000287164 3.56474705309751e-09
v 6.17070733399672e-09 1.00000000287082 0.389711435267757
v 3.1641356201817e-15 2.87082369823113e-09 0.389711431703009
v 3.1641356201817e-15 2.87082369823113e-09 0.389711431703009
v 6.17070733399672e-09 1.00000000287082 0.389711435267757
v 0.348874633532038 1 0.591134295288231
v 0.348874627361334 1.65436122510606e-23 0.591134291723484
v 0.348874627361334 1.65436122510606e-23 0.591134291723484
v 0.348874633532038 1 0.591134295288231
v 0.573874633532023 1.00000000000081 0.201422863585222
v 0.573874627361318 8.14316081240463e-13 0.201422860020474
v 0.573874627361318 8.14316081240463e-13 0.201422860020474
v 0.573874633532023 1.00000000000081 0.201422863585222
v 0.225000006170692 1.00000000287164 3.56474705309751e-09
v 0.224999999999988 2.87163801431235e-09 -2.22044604925031e-16
v 0.224999999999988 2.87163801431235e-09 -2.22044604925031e-16
v 3.1641356201817e-15 2.87082369823113e-09 0.389711431703009
v 0.348874627361334 1.65436122510606e-23 0.591134291723484
v 0.573874627361318 8.14316081240463e-13 0.201422860020474
v 0.225000006170692 1.00000000287164 3.56474699758635e-09
v 6.17070733399672e-09 1.00000000287082 0.389711435267757
v 0.348874633532038 1 0.591134295288231
v 0.573874633532023 1.00000000000081 0.201422863585222
vn -0.86602540378446 7.12636018061475e-09 -0.499999999999963
vn -0.86602540378446 7.12636018061475e-09 -0.499999999999963
vn -0.86602540378446 7.12636018061475e-09 -0.499999999999963
vn -0.86602540378446 7.12636018061475e-09 -0.499999999999963
vn -0.499999999999963 -1.80959129160866e-12 0.86602540378446
vn -0.499999999999963 -1.80959129160866e-12 0.86602540378446
vn -0.499999999999963 -1.80959129160866e-12 0.86602540378446
vn -0.499999999999963 -1.80959129160866e-12 0.86602540378446
vn 0.86602540378446 -7.12636018061475e-09 0.499999999999963
vn 0.86602540378446 -7.12636018061475e-09 0.499999999999963
vn 0.86602540378446 -7.12636018061475e-09 0.499999999999963
vn 0.86602540378446 -7.12636018061475e-09 0.499999999999963
vn 0.499999999999963 1.80959129160866e-12 -0.86602540378446
vn 0.499999999999963 1.80959129160866e-12 -0.86602540378446
vn 0.499999999999963 1.80959129160866e-12 -0.86602540378446
vn 0.499999999999963 1.80959129160866e-12 -0.86602540378446
vn -6.17070415728458e-09 -1 -3.56474724233611e-09
vn -6.17070415728458e-09 -1 -3.56474724233611e-09
vn -6.17070415728458e-09 -1 -3.56474724233611e-09
vn -6.17070415728458e-09 -1 -3.56474724233611e-09
vn 6.17070415728458e-09 1 3.56474724233611e-09
vn 6.17070415728458e-09 1 3.56474724233611e-09
vn 6.17070415728458e-09 1 3.56474724233611e-09
vn 6.17070415728458e-09 1 3.56474724233611e-09
usemtl DefaultMaterial
f 2//2 1//1 4//4
f 3//3 2//2 4//4
f 6//6 5//5 8//8
f 7//7 6//6 8//8
f 10//10 9//9 12//12
f 11//11 10//10 12//12
f 14//14 13//13 16//16
f 15//15 14//14 16//16
f 20//20 19//19 18//18
f 17//17 20//20 18//18
f 22//22 23//23 24//24
f 22//22 24//24 21//21
